<svg width="375" height="623" viewBox="0 0 375 623" fill="none" xmlns="http://www.w3.org/2000/svg">
<path fill-rule="evenodd" clip-rule="evenodd" d="M338.886 548.037C340.029 543.773 340.323 539.282 339.747 534.905C339.171 530.529 337.724 526.267 335.516 522.444C333.31 518.621 330.342 515.237 326.84 512.55C323.337 509.863 319.301 507.872 315.037 506.729C310.773 505.587 306.282 505.293 301.906 505.869C297.529 506.445 293.267 507.891 289.444 510.099C285.621 512.306 282.237 515.274 279.55 518.776C276.863 522.278 274.872 526.315 273.729 530.578C272.587 534.842 272.293 539.333 272.869 543.71C273.445 548.086 274.891 552.349 277.099 556.171C279.306 559.995 282.274 563.379 285.776 566.066C289.278 568.753 293.315 570.744 297.578 571.886C301.842 573.029 306.333 573.323 310.71 572.747C315.086 572.171 319.349 570.724 323.171 568.516C326.995 566.31 330.379 563.342 333.066 559.84C335.753 556.337 337.744 552.301 338.886 548.037Z" fill="#0657F9"/>
<path fill-rule="evenodd" clip-rule="evenodd" d="M308.459 524.544L311.826 525.447L304.021 554.575L300.654 553.673L308.459 524.544Z" fill="white"/>
<path fill-rule="evenodd" clip-rule="evenodd" d="M303.171 537.921L304.091 534.487C301.552 532.469 300.305 529.089 301.191 525.783C302.386 521.325 307.006 518.688 311.509 519.895C316.246 521.164 318.928 525.757 317.733 530.215C317.432 531.339 316.913 532.347 316.012 533.468L315.815 528.454L312.692 528.574L312.667 538.892L323.56 537.936L323.108 534.796L319.071 535.058C320.126 533.8 320.541 532.777 320.994 531.089C322.666 524.846 318.911 518.417 312.375 516.665C306.07 514.976 299.603 518.667 297.931 524.909C296.56 530.024 298.835 535.266 303.171 537.921Z" fill="white"/>
<path fill-rule="evenodd" clip-rule="evenodd" d="M309.31 541.199L308.39 544.632C310.928 546.651 312.175 550.031 311.289 553.337C310.095 557.795 305.475 560.432 300.971 559.225C296.235 557.956 293.553 553.362 294.747 548.905C295.048 547.781 295.568 546.773 296.468 545.651L296.666 550.665L299.788 550.546L299.813 540.228L288.92 541.184L289.372 544.324L293.409 544.062C292.354 545.32 291.939 546.342 291.487 548.031C289.814 554.273 293.569 560.703 300.106 562.454C306.41 564.144 312.877 560.453 314.55 554.211C315.92 549.096 313.645 543.854 309.31 541.199Z" fill="white"/>
<path fill-rule="evenodd" clip-rule="evenodd" d="M318.425 388L345.646 441.425L292.221 468.646L318.425 388Z" fill="#FBFAE8"/>
<path fill-rule="evenodd" clip-rule="evenodd" d="M390.905 461L405.652 520.149L374.139 528.006L359.391 468.857L390.905 461Z" fill="#EF1E02"/>
<path fill-rule="evenodd" clip-rule="evenodd" d="M134.491 535C143.046 535 149.979 541.936 149.979 550.491C149.979 559.046 143.046 565.981 134.491 565.981C125.936 565.981 119 559.046 119 550.491C119 541.936 125.936 535 134.491 535Z" fill="#23D198"/>
<path fill-rule="evenodd" clip-rule="evenodd" d="M-33 605.345L-7.0719 608.989C-4.17197 588.355 14.1772 574.621 33.9988 577.407C53.8204 580.193 67.6735 598.451 64.7736 619.085L90.7014 622.731C95.602 587.861 71.7863 556.495 37.6128 551.693C3.43724 546.889 -28.0997 570.478 -33 605.345Z" fill="#0657F9"/>
<path fill-rule="evenodd" clip-rule="evenodd" d="M29.412 445L88.4612 455.412L78.0493 514.461L29.412 445Z" fill="#FBFAE8"/>
<path fill-rule="evenodd" clip-rule="evenodd" d="M-31.9948 417.322L-6.32132 423.273C-1.75032 403.631 17.9415 391.336 37.5724 395.869L43.5071 370.163C9.66193 362.351 -24.1159 383.481 -31.9948 417.322Z" fill="#EF1E02"/>
<path fill-rule="evenodd" clip-rule="evenodd" d="M401.899 81.9334C382.588 54.3574 344.578 47.6523 317 66.9648L351.964 116.898L401.899 81.9334Z" fill="#FABF06"/>
<path fill-rule="evenodd" clip-rule="evenodd" d="M321 130C321 127.906 320.583 125.812 319.782 123.877C318.981 121.942 317.795 120.167 316.314 118.686C314.833 117.205 313.058 116.019 311.123 115.218C309.188 114.417 307.094 114 305 114C302.906 114 300.812 114.417 298.877 115.218C296.942 116.019 295.167 117.205 293.686 118.686C292.205 120.167 291.019 121.942 290.218 123.877C289.417 125.812 289 127.906 289 130C289 132.094 289.417 134.188 290.218 136.123C291.019 138.058 292.205 139.833 293.686 141.314C295.167 142.795 296.942 143.981 298.877 144.782C300.812 145.583 302.906 146 305 146C307.094 146 309.188 145.583 311.123 144.782C313.058 143.981 314.833 142.795 316.314 141.314C317.795 139.833 318.981 138.058 319.782 136.123C320.583 134.188 321 132.094 321 130Z" fill="#0657F9"/>
<path fill-rule="evenodd" clip-rule="evenodd" d="M315.418 126.297C315.386 126.275 315.333 126.234 315.265 126.177C314.072 125.176 313.85 125.141 313.693 125.218C313.516 125.271 313.413 125.374 312.994 127.122C312.968 127.229 312.949 127.309 312.94 127.349C312.712 128.338 312.769 128.607 312.882 128.732C312.929 128.784 312.989 128.821 313.058 128.839C313.124 128.87 313.206 128.875 313.282 128.848C313.541 128.759 313.764 128.362 313.908 127.934C313.932 128.058 313.949 128.183 313.963 128.308C313.976 128.433 313.989 128.558 313.998 128.688C314.009 128.83 314.017 128.968 314.021 129.111C314.026 129.249 314.031 129.392 314.031 129.53C314.031 129.673 314.021 129.815 314.017 129.954C314.012 130.084 313.998 130.208 313.989 130.333C313.98 130.463 313.963 130.587 313.944 130.712C313.925 130.841 313.908 130.966 313.891 131.091C313.876 131.203 313.85 131.315 313.828 131.421C313.798 131.564 313.764 131.698 313.733 131.837C313.702 131.976 313.656 132.113 313.616 132.246C313.578 132.37 313.54 132.492 313.499 132.611C313.459 132.733 313.413 132.853 313.368 132.974C313.323 133.095 313.268 133.214 313.219 133.33C313.167 133.451 313.112 133.566 313.058 133.683C312.733 134.38 312.318 134.998 311.832 135.596C311.758 135.687 311.675 135.779 311.597 135.868C311.519 135.959 311.436 136.046 311.354 136.131C311.145 136.347 310.922 136.563 310.697 136.764C310.605 136.847 310.512 136.925 310.418 136.996C309.578 137.625 308.733 138.165 307.76 138.544C307.64 138.591 307.512 138.633 307.396 138.673C307.268 138.717 307.148 138.753 307.022 138.793C306.9 138.832 306.774 138.865 306.647 138.896C306.141 139.019 305.647 139.111 305.13 139.159C304.971 139.175 304.818 139.186 304.661 139.195C304.548 139.202 304.435 139.204 304.319 139.204C304.179 139.204 304.035 139.209 303.896 139.204C303.751 139.199 303.607 139.19 303.467 139.181C303.336 139.173 303.211 139.159 303.084 139.146C302.972 139.134 302.859 139.12 302.746 139.106C302.601 139.088 302.462 139.062 302.323 139.034C302.197 139.01 302.071 138.985 301.944 138.954C301.805 138.92 301.67 138.888 301.53 138.851C301.403 138.818 301.283 138.781 301.16 138.741C301.035 138.699 300.914 138.659 300.791 138.615C300.738 138.595 300.684 138.576 300.63 138.557C300.462 138.497 300.278 138.517 300.134 138.62C299.987 138.724 299.904 138.891 299.909 139.07C299.92 139.507 300.436 139.864 301.413 140.127H301.417C301.54 140.159 301.661 140.189 301.786 140.22C301.922 140.253 302.062 140.278 302.202 140.306C302.345 140.334 302.485 140.355 302.625 140.377C302.764 140.399 302.904 140.417 303.048 140.435C303.187 140.452 303.327 140.461 303.471 140.47C303.611 140.479 303.755 140.489 303.896 140.493C304.04 140.498 304.179 140.502 304.324 140.498C304.463 140.493 304.607 140.498 304.747 140.489C304.872 140.48 304.999 140.475 305.125 140.466C305.283 140.454 305.44 140.439 305.593 140.417C305.737 140.404 305.877 140.381 306.016 140.36C306.157 140.338 306.296 140.31 306.436 140.283C306.575 140.256 306.715 140.225 306.855 140.194C306.995 140.163 307.129 140.123 307.268 140.082C307.408 140.041 307.544 140.002 307.679 139.958C307.818 139.912 307.949 139.869 308.084 139.819C308.22 139.77 308.355 139.717 308.49 139.658C308.619 139.603 308.752 139.548 308.886 139.49C308.998 139.431 309.116 139.378 309.232 139.319C309.364 139.254 309.49 139.186 309.616 139.115C309.728 139.053 309.841 138.985 309.953 138.919C310.063 138.854 310.175 138.781 310.283 138.709C310.393 138.635 310.499 138.566 310.607 138.491C310.716 138.415 310.823 138.334 310.926 138.254C311.031 138.174 311.134 138.093 311.238 138.009C311.341 137.924 311.441 137.835 311.543 137.746C311.631 137.67 311.715 137.59 311.801 137.509C311.862 137.45 311.923 137.393 311.985 137.335C312.08 137.237 312.17 137.143 312.264 137.045C312.359 136.947 312.445 136.849 312.535 136.746C312.62 136.649 312.706 136.546 312.791 136.443C312.875 136.342 312.954 136.233 313.035 136.131C313.106 136.04 313.171 135.948 313.233 135.849C313.318 135.734 313.4 135.609 313.481 135.489C313.546 135.392 313.603 135.297 313.66 135.199C313.733 135.075 313.805 134.949 313.877 134.82C313.94 134.71 313.994 134.597 314.053 134.481C314.111 134.365 314.166 134.254 314.22 134.133C314.278 134.003 314.332 133.874 314.386 133.741C314.441 133.606 314.494 133.477 314.544 133.343C314.588 133.225 314.625 133.103 314.665 132.983C314.71 132.849 314.747 132.71 314.787 132.576C314.828 132.439 314.859 132.304 314.891 132.162C314.921 132.028 314.953 131.89 314.981 131.752C315.006 131.627 315.026 131.506 315.048 131.381C315.072 131.243 315.089 131.1 315.107 130.962C315.122 130.838 315.134 130.712 315.142 130.587C315.151 130.449 315.161 130.311 315.17 130.168C315.178 130.043 315.179 129.918 315.179 129.794C315.179 129.637 315.179 129.481 315.175 129.324C315.171 129.2 315.161 129.076 315.156 128.95C315.151 128.794 315.13 128.643 315.111 128.486C315.094 128.344 315.08 128.206 315.057 128.067C315.034 127.929 315.012 127.791 314.986 127.648C314.965 127.541 314.941 127.429 314.917 127.323C315.274 127.604 315.801 127.946 316.134 127.853C316.22 127.829 316.292 127.773 316.332 127.702C316.382 127.644 316.413 127.572 316.418 127.492C316.434 127.211 316.089 126.809 315.418 126.297Z" fill="white"/>
<path fill-rule="evenodd" clip-rule="evenodd" d="M300.652 133.334C301.193 132.798 300.611 131.349 299.354 130.11C298.1 128.872 296.639 128.29 296.098 128.825C295.557 129.361 296.138 130.81 297.39 132.054C298.643 133.299 300.111 133.87 300.652 133.334Z" fill="white"/>
<path fill-rule="evenodd" clip-rule="evenodd" d="M308.242 125.815C308.783 125.28 308.202 123.83 306.949 122.59C305.697 121.35 304.233 120.775 303.692 121.31C303.152 121.846 303.733 123.295 304.985 124.535C306.238 125.775 307.701 126.35 308.242 125.815Z" fill="white"/>
<path fill-rule="evenodd" clip-rule="evenodd" d="M229.48 90C246.314 90 259.96 103.645 259.96 120.48C259.96 137.314 246.314 150.96 229.48 150.96C212.647 150.96 199 137.314 199 120.48C199 103.645 212.647 90 229.48 90Z" fill="#EF1E02"/>
<path fill-rule="evenodd" clip-rule="evenodd" d="M222.622 55.1936L167.428 78.6219L144 23.4282L222.622 55.1936Z" fill="#FBFAE8"/>
<path fill-rule="evenodd" clip-rule="evenodd" d="M126.814 58.904L104.91 103.814L60 81.9099L81.904 37L126.814 58.904Z" fill="#FABF06"/>
<path fill-rule="evenodd" clip-rule="evenodd" d="M50.4848 131.308L-10.4882 201.449L-34.9984 180.143L25.973 110L50.4848 131.308Z" fill="#23D198"/>
</svg>
