<svg width="1342" height="858" viewBox="0 0 1342 858" fill="none" xmlns="http://www.w3.org/2000/svg">
<path fill-rule="evenodd" clip-rule="evenodd" d="M249 189C282.691 189 310 216.309 310 250C310 283.691 282.691 311 249 311C215.313 311 188 283.691 188 250C188 216.309 215.313 189 249 189Z" fill="#EF1E02"/>
<path fill-rule="evenodd" clip-rule="evenodd" d="M738.002 654C755.124 654 769 667.88 769 685.002C769 702.124 755.124 716.004 738.002 716.004C720.88 716.004 707 702.124 707 685.002C707 667.88 720.88 654 738.002 654Z" fill="#23D198"/>
<path fill-rule="evenodd" clip-rule="evenodd" d="M283.002 737C300.124 737 314 750.88 314 768.002C314 785.124 300.124 799.004 283.002 799.004C265.88 799.004 252 785.124 252 768.002C252 750.88 265.88 737 283.002 737Z" fill="#23D198"/>
<path fill-rule="evenodd" clip-rule="evenodd" d="M1060 192C1093.69 192 1121 219.309 1121 253C1121 286.691 1093.69 314 1060 314C1026.31 314 999 286.691 999 253C999 219.309 1026.31 192 1060 192Z" fill="#EF1E02"/>
<path fill-rule="evenodd" clip-rule="evenodd" d="M1107.97 540.942L1056.04 531.738C1048.96 571.474 1010.89 598.107 971.186 591.106L962.017 643.103C1030.48 655.17 1095.77 609.402 1107.97 540.942Z" fill="#EF1E02"/>
<path fill-rule="evenodd" clip-rule="evenodd" d="M364.449 765.99L416.339 773.283C422.143 731.988 458.866 704.501 498.535 710.077C538.205 715.652 565.929 752.191 560.126 793.487L612.016 800.784C621.823 730.998 574.16 668.225 505.768 658.613C437.371 649.001 374.256 696.208 364.449 765.99Z" fill="#0657F9"/>
<path fill-rule="evenodd" clip-rule="evenodd" d="M0.453071 612.169L51.8342 624.078C60.9823 584.767 100.392 560.163 139.68 569.233L151.557 517.787C83.8219 502.153 16.2214 544.441 0.453071 612.169Z" fill="#EF1E02"/>
<path fill-rule="evenodd" clip-rule="evenodd" d="M914.674 153.786L804.213 200.674L757.326 90.2136L914.674 153.786Z" fill="#FBFAE8"/>
<path fill-rule="evenodd" clip-rule="evenodd" d="M54.9428 466.869L59.1307 346.943L179.058 351.13L54.9428 466.869Z" fill="#FBFAE8"/>
<path fill-rule="evenodd" clip-rule="evenodd" d="M220.33 498.493L338.507 519.33L317.669 637.507L220.33 498.493Z" fill="#FBFAE8"/>
<path fill-rule="evenodd" clip-rule="evenodd" d="M1160.22 319.3L1214.7 426.221L1107.78 480.7L1160.22 319.3Z" fill="#FBFAE8"/>
<path fill-rule="evenodd" clip-rule="evenodd" d="M1279.53 165.668L1341.33 268.528L1238.47 330.332L1279.53 165.668Z" fill="#FBFAE8"/>
<path fill-rule="evenodd" clip-rule="evenodd" d="M1.00138 757.358L101.642 692.001L166.999 792.642L1.00138 757.358Z" fill="#FBFAE8"/>
<path fill-rule="evenodd" clip-rule="evenodd" d="M713.858 105.647L670.021 195.526L580.142 151.689L623.979 61.8094L713.858 105.647Z" fill="#FABF06"/>
<path fill-rule="evenodd" clip-rule="evenodd" d="M265.389 123.331L324.477 133.75L334.896 74.6652L275.807 64.2463L265.389 123.331Z" fill="#0657F9"/>
<path fill-rule="evenodd" clip-rule="evenodd" d="M998.142 103C998.142 100.906 997.725 98.8118 996.924 96.8771C996.122 94.9424 994.936 93.167 993.455 91.6864C991.975 90.2054 990.199 89.0192 988.264 88.2179C986.33 87.4166 984.236 87 982.142 87C980.048 87 977.953 87.4166 976.019 88.2179C974.084 89.0192 972.309 90.2054 970.828 91.6864C969.347 93.167 968.161 94.9424 967.36 96.8771C966.558 98.8118 966.142 100.906 966.142 103C966.142 105.094 966.558 107.188 967.36 109.123C968.161 111.058 969.347 112.833 970.828 114.314C972.309 115.795 974.084 116.981 976.019 117.782C977.953 118.583 980.048 119 982.142 119C984.236 119 986.33 118.583 988.264 117.782C990.199 116.981 991.975 115.795 993.455 114.314C994.936 112.833 996.122 111.058 996.924 109.123C997.725 107.188 998.142 105.094 998.142 103Z" fill="#0657F9"/>
<path fill-rule="evenodd" clip-rule="evenodd" d="M992.559 99.2965C992.527 99.2747 992.474 99.2335 992.406 99.1764C991.213 98.1756 990.991 98.141 990.834 98.2174C990.658 98.2709 990.554 98.3739 990.136 100.122C990.11 100.229 990.09 100.309 990.081 100.349C989.853 101.338 989.911 101.607 990.024 101.732C990.071 101.784 990.131 101.821 990.199 101.839C990.266 101.87 990.348 101.875 990.424 101.848C990.683 101.759 990.906 101.362 991.05 100.934C991.073 101.058 991.09 101.183 991.104 101.308C991.118 101.433 991.13 101.558 991.14 101.687C991.15 101.83 991.158 101.968 991.163 102.111C991.167 102.249 991.172 102.392 991.172 102.53C991.172 102.673 991.163 102.815 991.158 102.953C991.154 103.084 991.14 103.208 991.13 103.333C991.121 103.463 991.104 103.587 991.086 103.712C991.066 103.841 991.05 103.966 991.033 104.09C991.017 104.203 990.991 104.314 990.969 104.421C990.94 104.564 990.906 104.698 990.874 104.836C990.843 104.975 990.797 105.113 990.757 105.246C990.72 105.37 990.681 105.492 990.641 105.611C990.6 105.732 990.554 105.852 990.509 105.973C990.464 106.095 990.41 106.214 990.36 106.33C990.308 106.451 990.253 106.566 990.199 106.682C989.874 107.38 989.46 107.998 988.973 108.596C988.899 108.687 988.816 108.779 988.739 108.868C988.66 108.959 988.578 109.046 988.496 109.13C988.286 109.347 988.063 109.563 987.838 109.764C987.746 109.846 987.654 109.925 987.559 109.996C986.719 110.625 985.874 111.165 984.901 111.544C984.781 111.591 984.653 111.633 984.537 111.673C984.41 111.717 984.289 111.753 984.163 111.793C984.042 111.832 983.915 111.865 983.788 111.896C983.282 112.019 982.789 112.11 982.271 112.159C982.113 112.174 981.96 112.186 981.802 112.195C981.69 112.201 981.577 112.204 981.46 112.204C981.321 112.204 981.177 112.208 981.037 112.204C980.893 112.199 980.749 112.19 980.608 112.181C980.478 112.173 980.352 112.159 980.225 112.146C980.113 112.134 980 112.119 979.887 112.106C979.742 112.088 979.603 112.061 979.464 112.034C979.339 112.009 979.213 111.985 979.086 111.954C978.947 111.92 978.811 111.888 978.672 111.851C978.544 111.818 978.424 111.78 978.302 111.74C978.176 111.699 978.055 111.659 977.933 111.615C977.879 111.595 977.825 111.576 977.771 111.557C977.603 111.497 977.419 111.517 977.275 111.619C977.128 111.724 977.046 111.891 977.05 112.07C977.062 112.507 977.578 112.864 978.554 113.127H978.559C978.681 113.159 978.802 113.189 978.928 113.22C979.064 113.253 979.203 113.278 979.343 113.306C979.487 113.334 979.626 113.355 979.766 113.377C979.906 113.398 980.045 113.416 980.189 113.435C980.329 113.452 980.468 113.461 980.612 113.47C980.752 113.479 980.896 113.488 981.037 113.493C981.181 113.498 981.321 113.502 981.465 113.498C981.604 113.493 981.748 113.498 981.888 113.488C982.013 113.48 982.14 113.475 982.266 113.466C982.424 113.454 982.581 113.439 982.734 113.416C982.879 113.404 983.018 113.381 983.158 113.359C983.298 113.338 983.438 113.31 983.577 113.283C983.717 113.255 983.857 113.225 983.996 113.194C984.137 113.163 984.27 113.123 984.41 113.082C984.549 113.041 984.686 113.002 984.82 112.957C984.96 112.912 985.09 112.868 985.225 112.819C985.361 112.77 985.496 112.717 985.631 112.658C985.761 112.602 985.893 112.548 986.028 112.489C986.14 112.431 986.257 112.378 986.374 112.319C986.506 112.253 986.631 112.186 986.758 112.115C986.87 112.052 986.983 111.985 987.095 111.918C987.204 111.854 987.316 111.78 987.424 111.708C987.535 111.635 987.64 111.566 987.748 111.49C987.857 111.415 987.964 111.334 988.068 111.254C988.172 111.174 988.275 111.093 988.379 111.009C988.483 110.924 988.582 110.835 988.685 110.746C988.772 110.67 988.857 110.589 988.942 110.509C989.004 110.45 989.064 110.393 989.126 110.335C989.221 110.237 989.311 110.143 989.405 110.045C989.5 109.947 989.586 109.849 989.676 109.746C989.762 109.648 989.847 109.546 989.932 109.443C990.017 109.342 990.095 109.233 990.176 109.13C990.247 109.039 990.312 108.948 990.374 108.849C990.459 108.734 990.541 108.609 990.622 108.489C990.687 108.392 990.744 108.297 990.802 108.199C990.875 108.074 990.946 107.949 991.019 107.82C991.081 107.709 991.135 107.597 991.194 107.481C991.252 107.365 991.307 107.253 991.361 107.132C991.419 107.003 991.473 106.874 991.527 106.74C991.582 106.606 991.636 106.477 991.685 106.343C991.729 106.225 991.766 106.102 991.806 105.983C991.851 105.849 991.888 105.71 991.929 105.576C991.97 105.439 992 105.304 992.033 105.162C992.063 105.028 992.095 104.89 992.122 104.752C992.147 104.627 992.167 104.506 992.189 104.381C992.213 104.243 992.231 104.1 992.248 103.962C992.264 103.837 992.276 103.712 992.284 103.587C992.293 103.449 992.302 103.311 992.312 103.168C992.32 103.043 992.321 102.918 992.321 102.794C992.321 102.637 992.321 102.481 992.316 102.324C992.313 102.2 992.302 102.075 992.298 101.95C992.292 101.794 992.271 101.643 992.253 101.486C992.236 101.344 992.222 101.205 992.198 101.067C992.176 100.929 992.154 100.791 992.127 100.648C992.107 100.54 992.082 100.429 992.059 100.323C992.415 100.604 992.942 100.946 993.275 100.852C993.362 100.828 993.434 100.773 993.474 100.702C993.523 100.644 993.554 100.572 993.559 100.492C993.575 100.211 993.231 99.8092 992.559 99.2965Z" fill="white"/>
<path fill-rule="evenodd" clip-rule="evenodd" d="M977.793 106.334C978.334 105.799 977.753 104.35 976.496 103.11C975.241 101.872 973.78 101.29 973.24 101.825C972.698 102.361 973.28 103.81 974.532 105.054C975.785 106.299 977.252 106.87 977.793 106.334Z" fill="white"/>
<path fill-rule="evenodd" clip-rule="evenodd" d="M985.384 98.8146C985.924 98.2801 985.343 96.8303 984.091 95.5902C982.839 94.3501 981.375 93.7747 980.834 94.3102C980.293 94.8456 980.874 96.2948 982.127 97.5346C983.379 98.7747 984.843 99.35 985.384 98.8146Z" fill="white"/>
<path fill-rule="evenodd" clip-rule="evenodd" d="M86.2558 155.076C112.482 177.085 116.193 215.847 94.5373 241.655C72.8812 267.464 34.0612 270.54 7.83252 248.531L86.2526 155.074C86.2537 155.074 86.2547 155.075 86.2558 155.076ZM86.2558 155.076L164.673 61.6162C190.903 83.6259 194.612 122.391 172.956 148.199C151.303 174.004 112.486 177.086 86.2558 155.076Z" fill="#FBFAE8"/>
<path fill-rule="evenodd" clip-rule="evenodd" d="M956.378 734.047C958.168 768.237 932.35 797.387 898.706 799.15C865.061 800.913 836.337 774.62 834.545 740.427L956.378 734.043C956.378 734.044 956.378 734.045 956.378 734.047ZM956.378 734.047L1078.21 727.658C1080 761.852 1054.18 791.002 1020.54 792.765C986.897 794.528 958.17 768.241 956.378 734.047Z" fill="#FBFAE8"/>
<path fill-rule="evenodd" clip-rule="evenodd" d="M1305.28 384.967L1334.79 503.343L1271.72 519.068L1242.21 400.692L1305.28 384.967Z" fill="#EF1E02"/>
<path fill-rule="evenodd" clip-rule="evenodd" d="M552.99 74.1339L430.963 214.51L381.91 171.869L503.934 31.4901L552.99 74.1339Z" fill="#23D198"/>
<path fill-rule="evenodd" clip-rule="evenodd" d="M1293.91 684.97C1296.19 676.437 1296.78 667.449 1295.63 658.69C1294.48 649.931 1291.58 641.401 1287.16 633.75C1282.75 626.099 1276.81 619.326 1269.8 613.949C1262.79 608.571 1254.71 604.587 1246.18 602.3C1237.65 600.013 1228.66 599.425 1219.9 600.577C1211.14 601.73 1202.61 604.626 1194.96 609.044C1187.31 613.46 1180.53 619.4 1175.16 626.409C1169.78 633.418 1165.79 641.496 1163.51 650.03C1161.22 658.563 1160.63 667.551 1161.79 676.31C1162.94 685.069 1165.83 693.599 1170.25 701.25C1174.67 708.901 1180.61 715.674 1187.62 721.051C1194.63 726.429 1202.7 730.413 1211.24 732.7C1219.77 734.986 1228.76 735.575 1237.52 734.422C1246.28 733.27 1254.81 730.374 1262.46 725.956C1270.11 721.54 1276.88 715.6 1282.26 708.591C1287.64 701.582 1291.62 693.504 1293.91 684.97Z" fill="#0657F9"/>
<path fill-rule="evenodd" clip-rule="evenodd" d="M1233.01 637.954L1239.75 639.76L1224.13 698.055L1217.39 696.249L1233.01 637.954Z" fill="white"/>
<path fill-rule="evenodd" clip-rule="evenodd" d="M1222.43 664.724L1224.27 657.853C1219.19 653.814 1216.7 647.049 1218.47 640.432C1220.86 631.51 1230.11 626.233 1239.12 628.648C1248.6 631.188 1253.97 640.381 1251.57 649.303C1250.97 651.552 1249.93 653.569 1248.13 655.813L1247.73 645.779L1241.49 646.018L1241.44 666.667L1263.24 664.755L1262.33 658.47L1254.25 658.995C1256.36 656.477 1257.19 654.431 1258.1 651.051C1261.45 638.558 1253.93 625.69 1240.85 622.185C1228.23 618.804 1215.29 626.191 1211.94 638.683C1209.2 648.921 1213.75 659.412 1222.43 664.724Z" fill="white"/>
<path fill-rule="evenodd" clip-rule="evenodd" d="M1234.72 671.285L1232.87 678.156C1237.96 682.196 1240.45 688.96 1238.68 695.577C1236.29 704.499 1227.04 709.776 1218.03 707.361C1208.55 704.821 1203.18 695.628 1205.57 686.706C1206.17 684.457 1207.21 682.44 1209.02 680.196L1209.41 690.23L1215.66 689.991L1215.71 669.342L1193.91 671.255L1194.81 677.539L1202.89 677.014C1200.78 679.532 1199.95 681.578 1199.05 684.958C1195.7 697.451 1203.21 710.319 1216.3 713.824C1228.91 717.205 1241.86 709.818 1245.2 697.326C1247.95 687.089 1243.39 676.599 1234.72 671.285Z" fill="white"/>
<path fill-rule="evenodd" clip-rule="evenodd" d="M1251.16 99.9768C1212.51 44.7882 1136.44 31.3691 1081.25 70.0199L1151.23 169.953L1251.16 99.9768Z" fill="#FABF06"/>
</svg>
