<svg width="32" height="32" viewBox="0 0 32 32" fill="none" xmlns="http://www.w3.org/2000/svg">
<path fill-rule="evenodd" clip-rule="evenodd" d="M32 15.9241C32 7.13934 24.8285 0.00366211 16 0.00366211C7.17152 0.00366211 0 7.13934 0 15.9241C0 24.7086 7.17152 31.8445 16 31.8445C24.8285 31.8445 32 24.7086 32 15.9241Z" fill="url(#paint0_linear)"/>
<path fill-rule="evenodd" clip-rule="evenodd" d="M19.1496 23.2078C21.2717 23.9834 23.1851 24.3086 24.7697 24.5302C26.3544 24.7517 27.6105 24.8695 28.2677 24.9615C28.9248 25.0535 28.9832 25.1196 28.9542 25.1898C28.9251 25.2597 28.8089 25.3339 28.5055 25.4241C28.2022 25.5143 27.7116 25.6209 26.7313 26.1596C25.7508 26.6986 24.2805 27.6699 22.8224 28.439C21.3642 29.2083 19.9182 29.7752 18.2141 30.2592C16.5101 30.7431 14.548 31.144 12.7391 31.0706C10.9301 30.9972 9.27408 30.4496 7.75481 29.5473C6.23538 28.6448 4.85256 27.3878 4.10553 25.8637C3.35835 24.3395 3.24713 22.5481 3.44855 21.265C3.64998 19.982 4.16422 19.207 4.97008 18.7215C5.77595 18.2359 6.87345 18.0398 8.15459 18.2979C9.43574 18.5561 10.9008 19.2685 12.7987 20.2375C14.6966 21.2066 17.0274 22.4324 19.1496 23.2078Z" fill="#00F8FF" fill-opacity="0.396061"/>
<path opacity="0.699544" fill-rule="evenodd" clip-rule="evenodd" d="M22.291 26.561C23.7784 27.0575 25.2576 27.5417 25.553 28.0764C25.8483 28.6112 24.96 29.1966 23.7619 29.8326C22.5638 30.4686 21.056 31.1554 19.1637 31.5289C17.2714 31.9026 14.9946 31.9629 12.8952 31.5296C10.796 31.0962 8.87424 30.1693 7.76736 29.223C6.66048 28.2769 6.36864 27.3114 6.3736 26.3382C6.3784 25.365 6.68 24.384 7.47552 23.7504C8.27088 23.1167 9.56016 22.8305 11.3653 23.1043C13.1704 23.3783 15.4915 24.2124 17.3998 24.8839C19.3082 25.5554 20.8037 26.0644 22.291 26.561Z" fill="#053FBE"/>
<path fill-rule="evenodd" clip-rule="evenodd" d="M18.5875 27.6017C20.4627 28.22 22.4895 29.0464 22.6037 29.7887C22.7178 30.531 20.9192 31.1892 19.0272 31.5491C17.1352 31.9093 15.1498 31.9713 13.4648 31.5308C11.78 31.0903 10.3959 30.147 9.82865 29.1547C9.26161 28.1622 9.51153 27.1206 10.2203 26.6136C10.9291 26.1067 12.0967 26.1348 13.5426 26.3538C14.9883 26.5731 16.7122 26.9833 18.5875 27.6017Z" fill="#001EC3"/>
<path fill-rule="evenodd" clip-rule="evenodd" d="M14.6982 28.5352C13.6787 28.4924 12.9026 28.8183 12.6867 29.29C12.4709 29.7617 12.8154 30.3793 13.5213 30.7918C14.2272 31.2043 15.2946 31.4117 16.4134 31.3995C17.5323 31.3872 18.7029 31.1553 19.0166 30.7856C19.3304 30.4159 18.7872 29.9085 17.884 29.4491C16.981 28.9896 15.7179 28.5781 14.6982 28.5352Z" fill="#000086"/>
<path opacity="0.8" fill-rule="evenodd" clip-rule="evenodd" d="M14.9009 30.4591C16.8029 30.2083 18.7401 29.5435 20.8835 28.2824C23.027 27.0215 25.3766 25.1644 27.0005 23.2083C28.6243 21.252 29.5225 19.1965 30.0949 17.2816C30.6672 15.3665 30.9136 13.5922 30.7192 11.7798C30.5246 9.9676 29.8893 8.11718 28.8593 6.65632C27.8294 5.1953 26.4048 4.12354 24.6729 3.45536C22.9411 2.78719 20.9019 2.52259 18.8081 2.80709C16.7144 3.09158 14.5661 3.92533 12.496 5.1676C10.4261 6.40987 8.43455 8.0605 6.74687 10.0418C5.05919 12.0229 3.67551 14.3346 3.02815 16.797C2.38079 19.2595 2.46975 21.8729 2.97375 23.8002C3.47775 25.7275 4.39679 26.9687 5.51487 27.9514C6.63279 28.9341 7.94975 29.6583 9.54127 30.1021C11.1329 30.546 12.9992 30.7097 14.9009 30.4591Z" fill="url(#paint1_linear)"/>
<path fill-rule="evenodd" clip-rule="evenodd" d="M13.556 11.1134C15.8958 12.2652 18.3291 13.7622 20.1051 15.4014C21.881 17.0404 22.9994 18.8217 23.2618 20.5496C23.5242 22.2774 22.9304 23.9521 21.8296 25.352C20.7286 26.7518 19.1206 27.8773 17.5966 28.612C16.0726 29.3467 14.6328 29.6911 13.101 29.7872C11.5691 29.8835 9.94513 29.7318 8.50097 29.3325C7.05681 28.9331 5.79249 28.2859 4.76577 27.3508C3.73889 26.4154 2.94977 25.1921 2.39377 23.7983C1.83777 22.4045 1.51505 20.84 1.29777 19.1901C1.08065 17.5403 0.968806 15.805 0.930566 14.1636C0.892486 12.5223 0.927846 10.975 1.36769 9.9988C1.80769 9.02272 2.65233 8.61787 3.61249 8.43797C4.57249 8.25807 5.64801 8.30312 7.30897 8.72899C8.96993 9.15502 11.2162 9.96155 13.556 11.1134Z" fill="#1CEFFF" fill-opacity="0.6"/>
<g style="mix-blend-mode:multiply">
<path fill-rule="evenodd" clip-rule="evenodd" d="M17.6181 11.3087C20.5182 12.8298 23.5726 14.5595 25.8899 16.452C28.2073 18.3446 29.7877 20.3999 30.2195 21.7794C30.6512 23.1588 29.9342 23.8624 28.5601 24.0317C27.1861 24.2009 25.1547 23.836 22.7792 23.0467C20.4037 22.2574 17.684 21.0436 15.2104 19.752C12.7369 18.4605 10.5094 17.0909 8.67725 15.7981C6.84493 14.5056 5.40781 13.2897 4.38861 12.2804C3.36957 11.271 2.76845 10.4683 2.44605 9.54603C2.12349 8.62376 2.07949 7.58209 3.25597 7.16498C4.43229 6.74786 6.82909 6.95546 9.40045 7.71534C11.9718 8.47538 14.7179 9.7877 17.6181 11.3087Z" fill="#94FF63" fill-opacity="0.6"/>
</g>
<path fill-rule="evenodd" clip-rule="evenodd" d="M15.8578 18.7444C17.3866 19.6824 19.3071 20.6771 21.4672 21.4454C23.6274 22.2137 26.0272 22.7558 27.7952 22.7749C29.5634 22.7942 30.7784 22.2953 31.3507 20.3827C31.923 18.4701 32.2383 15.8445 31.7652 13.1739C31.292 10.5034 29.9519 7.783 28.6591 6.39108C27.3663 4.99916 25.7352 4.23483 23.8808 3.84C22.0264 3.44517 19.9483 3.4197 17.9512 3.911C15.9541 4.40215 14.0376 5.40975 12.5923 6.72302C11.1469 8.0363 10.1725 9.65508 10.1613 11.2595C10.1501 12.8638 11.1021 14.454 12.1467 15.6896C13.1915 16.9251 14.3288 17.8065 15.8578 18.7444Z" fill="url(#paint2_linear)"/>
<path fill-rule="evenodd" clip-rule="evenodd" d="M0.465096 13.3739C0.771816 12.4298 1.29438 11.615 2.23918 11.2856C3.18398 10.9561 4.55118 11.112 5.97374 11.4479C7.39646 11.784 8.8747 12.2999 10.5118 13.2402C12.1491 14.1805 13.9453 15.5448 15.2046 17.0082C16.4641 18.4715 17.187 20.0337 17.3105 21.5438C17.4339 23.054 16.9581 24.512 16.0961 25.6221C15.2344 26.7323 13.9867 27.4944 12.667 27.9309C11.3473 28.3673 9.95534 28.4782 8.53502 28.2627C7.1147 28.0473 5.6659 27.5057 4.52222 26.6835C3.3787 25.8614 2.54046 24.7591 1.92526 23.6267C1.31022 22.4941 0.918376 21.3316 0.630696 20.1329C0.343016 18.9341 0.159656 17.6993 0.113576 16.5451C0.0673358 15.391 0.158216 14.3178 0.465096 13.3739Z" fill="url(#paint3_linear)"/>
<path fill-rule="evenodd" clip-rule="evenodd" d="M7.70289 26.0004C8.65665 26.0286 9.65313 25.9036 10.46 25.4605C11.2669 25.0173 11.8843 24.256 12.2213 23.3145C12.5581 22.3729 12.6142 21.2512 12.2315 20.1122C11.8488 18.9731 11.027 17.817 9.86897 16.8898C8.71105 15.9624 7.21697 15.2638 5.99745 14.7834C4.77793 14.3029 3.83297 14.0402 2.96417 14.227C2.09521 14.4135 1.30225 15.0494 0.917288 15.8867C0.532168 16.7237 0.555208 17.7624 0.680968 18.706C0.806728 19.6498 1.03521 20.4988 1.39601 21.3179C1.75665 22.137 2.24977 22.9262 2.86017 23.6365C3.47073 24.3469 4.19857 24.9786 5.01825 25.3849C5.83777 25.7912 6.74913 25.9724 7.70289 26.0004Z" fill="url(#paint4_linear)"/>
<path fill-rule="evenodd" clip-rule="evenodd" d="M7.29294 19.1514C8.02574 20.0373 8.35374 21.1522 8.19902 21.9487C8.04446 22.7452 7.40702 23.2231 6.59278 23.3003C5.77854 23.3775 4.7875 23.0539 4.0291 22.4952C3.27054 21.9366 2.74462 21.1428 2.46382 20.3354C2.18302 19.5283 2.14734 18.7074 2.49198 18.1413C2.83646 17.5753 3.5611 17.2641 4.49214 17.4367C5.42302 17.6092 6.5603 18.2658 7.29294 19.1514Z" fill="#0A0FCA" fill-opacity="0.8"/>
<path fill-rule="evenodd" clip-rule="evenodd" d="M23.3742 16.7285C24.8349 17.2991 26.6224 17.5522 27.8686 17.2588C29.1149 16.9653 29.82 16.1251 30.0942 15.086C30.3685 14.047 30.212 12.8089 29.6573 11.577C29.1026 10.3452 28.1496 9.11968 26.8517 8.37238C25.5538 7.62508 23.911 7.35586 22.5514 7.49039C21.1915 7.62492 20.1149 8.16303 19.4701 8.91527C18.8254 9.6675 18.6125 10.6339 18.7138 11.5805C18.815 12.5273 19.2302 13.4545 20.0048 14.3621C20.7795 15.2697 21.9134 16.1579 23.3742 16.7285Z" fill="#FF6D00" fill-opacity="0.856971"/>
<path fill-rule="evenodd" clip-rule="evenodd" d="M21.459 18.7327C23.2106 19.5206 25.1054 20.0974 26.6955 20.1692C28.2856 20.2412 29.571 19.808 30.4106 18.9028C31.2502 17.9974 31.644 16.6199 31.6194 14.8184C31.5949 13.0167 31.152 10.791 29.8278 9.00219C28.5037 7.21353 26.2982 5.86173 24.0075 5.43713C21.7166 5.0127 19.3406 5.51514 17.6539 6.55825C15.9672 7.60135 14.9699 9.18495 14.891 10.8397C14.8122 12.4946 15.6517 14.2206 16.8755 15.5832C18.0995 16.9458 19.7077 17.9448 21.459 18.7327Z" fill="#FFFD00" fill-opacity="0.749399"/>
<path fill-rule="evenodd" clip-rule="evenodd" d="M19.204 10.1774C21.0565 11.057 22.9441 11.9842 24.5669 12.4903C26.1896 12.9966 27.5475 13.082 28.4259 12.5749C29.3041 12.068 29.7029 10.9687 29.7461 9.91411C29.7893 8.85938 29.4768 7.84955 28.8513 6.76585C28.2257 5.68215 27.2872 4.52458 25.8073 3.62555C24.3275 2.72669 22.3064 2.08637 20.2342 2.00183C18.1622 1.91745 16.0392 2.3887 14.3096 2.97887C12.5798 3.56919 11.2437 4.27813 10.0707 4.93246C8.89758 5.58679 7.88782 6.18651 6.8419 6.5436C5.79598 6.9007 4.71374 7.01532 4.0755 6.92171C3.43742 6.82826 3.24318 6.52657 3.34862 6.26786C3.45422 6.00899 3.85966 5.79311 4.68542 5.70364C5.51118 5.61417 6.75742 5.65142 8.33278 5.99419C9.9083 6.33695 11.8129 6.98539 13.6737 7.72569C15.5347 8.46599 17.3517 9.29799 19.204 10.1774Z" fill="url(#paint5_radial)"/>
<path fill-rule="evenodd" clip-rule="evenodd" d="M16.8336 5.96409C18.9131 6.63514 21.0171 7.2148 22.7853 7.43068C24.5534 7.6464 25.9858 7.49834 26.5802 6.84067C27.1744 6.183 26.9307 5.01571 26.075 3.93822C25.2194 2.86073 23.7515 1.87271 22.044 1.33635C20.3363 0.799993 18.3888 0.715296 16.7246 0.827376C15.0605 0.939615 13.6797 1.24863 12.3958 1.63358C11.1122 2.01838 9.92529 2.47896 8.91857 2.77205C7.91185 3.06499 7.08513 3.1906 6.64321 3.26956C6.20129 3.34837 6.14417 3.38069 6.21441 3.38976C6.28465 3.39868 6.48257 3.38419 7.24209 3.44342C8.00161 3.50264 9.32273 3.63542 11.0109 4.0831C12.699 4.53062 14.7541 5.29305 16.8336 5.96409Z" fill="url(#paint6_linear)"/>
<path fill-rule="evenodd" clip-rule="evenodd" d="M13.7044 2.62368C14.8798 2.91455 15.9744 3.26288 17.1732 3.51061C18.3723 3.75833 19.6755 3.90559 20.7632 3.89492C21.8508 3.88442 22.7228 3.71614 23.0376 3.27483C23.3523 2.83367 23.1094 2.11964 22.4264 1.5715C21.7433 1.02336 20.6198 0.641273 19.5067 0.379542C18.3936 0.11781 17.2907 -0.0234037 16.0624 0.00318333C14.834 0.0297704 13.4803 0.224158 12.427 0.455004C11.3737 0.685691 10.6209 0.952835 10.0878 1.14722C9.55453 1.34161 9.24109 1.46308 9.14845 1.5567C9.05581 1.65015 9.18413 1.71558 9.36573 1.76239C9.54717 1.80919 9.78205 1.83737 10.5275 1.96824C11.2729 2.0991 12.5291 2.33282 13.7044 2.62368Z" fill="url(#paint7_linear)"/>
<path fill-rule="evenodd" clip-rule="evenodd" d="M16.9118 1.71176C17.7446 1.72163 18.5854 1.62452 19.0896 1.46786C19.5937 1.3112 19.7614 1.09516 19.5801 0.862088C19.399 0.628854 18.8689 0.378744 18.2054 0.224953C17.5417 0.0711623 16.7448 0.0138489 15.9605 0.0165554C15.1761 0.0192618 14.4048 0.0821474 13.8515 0.206963C13.2982 0.331779 12.9632 0.518526 13.096 0.739023C13.2286 0.959521 13.8289 1.21377 14.5414 1.39924C15.2541 1.58487 16.079 1.70189 16.9118 1.71176Z" fill="#A60000"/>
<g style="mix-blend-mode:multiply">
<path fill-rule="evenodd" clip-rule="evenodd" d="M26.1686 14.9016C27.1398 14.7754 27.8798 13.9604 27.9929 13.0337C28.1061 12.107 27.5923 11.0685 26.684 10.4449C25.7755 9.82145 24.4725 9.61273 23.5843 9.83673C22.6961 10.0607 22.223 10.7174 22.1603 11.4673C22.0974 12.2171 22.4451 13.06 23.22 13.7627C23.995 14.4654 25.1973 15.0279 26.1686 14.9016Z" fill="#FF6D00" fill-opacity="0.418187"/>
</g>
<g style="mix-blend-mode:screen">
<path fill-rule="evenodd" clip-rule="evenodd" d="M2.47281 24.5002C3.01425 25.3102 3.68689 26.0676 4.52225 26.674C5.66593 27.504 7.11473 28.051 8.53505 28.2685C9.95537 28.486 11.3474 28.3741 12.667 27.9334C13.9867 27.4926 15.2344 26.7231 16.0962 25.6023C16.9581 24.4814 17.4339 23.0093 17.3106 21.4847C17.187 19.9599 16.4642 18.3827 15.2046 16.9051C13.9453 15.4278 12.1491 14.0502 10.5118 13.1008C8.87473 12.1515 7.39649 11.6304 5.97377 11.2912C4.55121 10.952 3.18401 10.7947 2.23921 11.1273C1.29441 11.46 0.771849 12.2825 0.465129 13.2357C0.188329 14.0955 0.0872087 15.0617 0.104009 16.0981C0.143689 14.278 0.450889 13.4696 0.737769 12.872C1.02449 12.2743 1.29073 11.8876 1.69329 11.6106C2.09569 11.3336 2.63441 11.1665 3.43409 11.1594C4.23377 11.1523 5.29441 11.3054 6.43249 11.6334C7.57057 11.9615 8.78593 12.4645 9.94081 13.1C11.0955 13.7355 12.1896 14.5035 13.1426 15.3024C14.0957 16.1014 14.9077 16.9315 15.5584 17.9135C16.2093 18.8956 16.6987 20.0297 16.8506 21.1661C17.0024 22.3027 16.8165 23.4419 16.3406 24.3993C15.8648 25.3568 15.099 26.1324 14.2075 26.7485C13.3162 27.3647 12.299 27.8213 11.1824 28.0039C10.0658 28.1864 8.84945 28.0949 7.79265 27.8546C6.73601 27.6143 5.83889 27.2253 5.14769 26.8369C4.45633 26.4486 3.97089 26.061 3.54161 25.6691C3.11217 25.2773 2.73889 24.881 2.47281 24.5002Z" fill="white"/>
</g>
<path fill-rule="evenodd" clip-rule="evenodd" d="M10.46 25.4742C9.65313 25.9241 8.65665 26.051 7.70289 26.0225C6.74913 25.9939 5.83777 25.8101 5.01825 25.3974C4.19857 24.9848 3.47073 24.3436 2.86017 23.6221C2.24977 22.9008 1.75665 22.0995 1.39601 21.2679C1.03521 20.4362 0.806728 19.5741 0.680968 18.6159C0.555208 17.6576 0.532168 16.6031 0.917288 15.753C1.30225 14.903 2.09521 14.2572 2.96417 14.0677C3.83297 13.8783 4.77793 14.1448 5.99745 14.6327C7.21697 15.1207 8.71105 15.8299 9.86897 16.7715C11.027 17.7132 11.8488 18.8871 12.2315 20.0436C12.6142 21.2 12.5581 22.3392 12.2213 23.2952C11.8843 24.2513 11.2669 25.0243 10.46 25.4742ZM10.2901 17.4752C9.56289 16.7373 8.64369 16.0929 7.71009 15.5869C6.77649 15.081 5.82849 14.7132 5.07553 14.4534C4.32257 14.1936 3.76433 14.042 3.11169 14.1608C2.45905 14.2796 1.71169 14.6689 1.24737 15.42C0.783208 16.1708 0.601768 17.2838 0.780328 18.6144C0.958728 19.9451 1.49697 21.4936 2.34129 22.7522C3.18577 24.011 4.33649 24.9797 5.74001 25.4575C7.14369 25.9354 8.80017 25.9224 9.95569 25.414C11.1112 24.9058 11.7659 23.9023 12.0378 22.8968C12.3096 21.8914 12.1986 20.8842 11.8755 19.9647C11.5525 19.0452 11.0173 18.2133 10.2901 17.4752Z" fill="white"/>
<path fill-rule="evenodd" clip-rule="evenodd" d="M3.88238 26.3925C4.15422 26.7355 4.44862 27.0543 4.76574 27.3454C5.79246 28.2883 7.05678 28.9406 8.50094 29.3433C9.9451 29.746 11.5691 29.899 13.1009 29.8019C14.6328 29.7048 16.0726 29.3578 17.5966 28.6169C19.1206 27.8762 20.7286 26.7418 21.8296 25.3303C22.9304 23.9191 23.5241 22.2309 23.2617 20.489C22.9993 18.7469 21.8809 16.9513 20.1051 15.2987C18.3291 13.6464 15.8958 12.1372 13.556 10.976C11.2161 9.81478 8.9699 9.00152 7.30894 8.57218C5.64798 8.14284 4.57246 8.09742 3.61246 8.27879C2.6523 8.45999 1.80766 8.86831 1.36766 9.85233C1.26686 10.0778 1.18734 10.3337 1.12494 10.6141C1.41678 9.62859 1.87758 9.11435 2.53198 8.77265C3.18638 8.43094 4.03422 8.26161 5.3139 8.37958C6.59358 8.49755 8.30478 8.90281 10.4363 9.74496C12.5677 10.5871 15.1193 11.8661 17.2275 13.3305C19.3358 14.7948 21.0006 16.4442 21.9321 18.0932C22.8637 19.7424 23.0617 21.3907 22.6904 22.805C22.3189 24.2192 21.3779 25.399 20.1809 26.4558C18.9841 27.5125 17.5312 28.4463 15.8742 28.9859C14.2173 29.5256 12.356 29.6714 10.7966 29.568C9.2371 29.4648 7.9795 29.1125 6.87902 28.5984C5.77854 28.0844 4.83518 27.4085 3.88238 26.3925Z" fill="white"/>
<path fill-rule="evenodd" clip-rule="evenodd" d="M2.25218 8.49115C2.24706 7.93328 2.4893 7.52048 2.93826 7.26545C3.38722 7.01043 4.0429 6.91302 5.02978 6.96712C6.01682 7.02121 7.33522 7.22681 8.85858 7.67504C10.3819 8.12343 12.1103 8.8146 14.0896 9.75839C16.0688 10.7022 18.2991 11.8984 20.1437 12.9515C21.9883 14.0045 23.4472 14.9143 24.7431 15.8727C26.0389 16.8313 27.1719 17.8387 28.0031 18.7287C28.8344 19.6187 29.364 20.3915 29.7104 20.9729C30.0568 21.5543 30.2202 21.9444 30.2823 22.31C30.3443 22.6755 30.3051 23.0165 30.029 23.4301C30.3576 23.0542 30.4443 22.513 30.2195 21.7866C29.7877 20.3915 28.2074 18.313 25.8899 16.3992C23.5727 14.4852 20.5183 12.7359 17.6181 11.1977C14.7179 9.65954 11.9719 8.33241 9.4005 7.56395C6.82914 6.79533 4.43234 6.58555 3.25602 7.00737C2.4629 7.2917 2.2245 7.86309 2.25218 8.49115Z" fill="white"/>
<path fill-rule="evenodd" clip-rule="evenodd" d="M28.2925 24.9646C28.2958 24.9651 28.2992 24.9656 28.3024 24.9661C28.9559 25.0597 29.0139 25.1269 28.9852 25.1983C28.9562 25.2695 28.8406 25.345 28.5389 25.4367C28.2373 25.5285 27.7061 25.6116 26.7313 26.1596C25.7563 26.7079 24.2724 27.6566 22.8224 28.439C21.3723 29.2216 19.9344 29.7982 18.2398 30.2906C16.5453 30.7829 14.6592 31.2553 12.8603 31.1806C11.1873 31.1112 9.64593 30.6245 8.2229 29.8183C10.9601 31.2101 13.0313 31.1035 14.7127 30.8722C16.3939 30.641 17.6851 30.2849 19.1162 29.7372C20.5471 29.1896 22.1179 28.4502 23.3184 27.7908C24.5191 27.1316 25.3496 26.5521 26.055 26.1668C26.7604 25.7815 27.3408 25.5903 27.7875 25.4707C28.2341 25.3514 28.5474 25.3038 28.7284 25.2599C28.9096 25.2162 28.9586 25.1762 28.9038 25.1302C28.8488 25.0842 28.69 25.032 28.2925 24.9646Z" fill="white"/>
<path fill-rule="evenodd" clip-rule="evenodd" d="M28.4752 6.15806C28.612 6.35929 28.7368 6.55989 28.8514 6.75826C29.4768 7.84196 29.7893 8.85179 29.7461 9.90635C29.7029 10.9609 29.3042 12.0602 28.4259 12.5673C27.5475 13.0744 26.1896 12.9889 24.5669 12.4828C22.9442 11.9765 21.0565 11.0494 19.204 10.1698C17.3517 9.29023 15.5347 8.45824 13.6738 7.71794C11.813 6.9778 9.90834 6.32936 8.33282 5.98659C6.75746 5.64367 5.51122 5.60657 4.68546 5.69589C3.8597 5.78536 3.45426 6.0014 3.34866 6.26011C3.33778 6.28701 3.3301 6.31424 3.32562 6.34178C3.3853 6.09772 3.62194 5.97449 3.95538 5.89378C4.28882 5.81322 4.71906 5.77517 5.43026 5.80287C6.14146 5.83057 7.13346 5.92387 8.18994 6.15487C9.24642 6.38588 10.3672 6.75459 11.5634 7.20944C12.7595 7.66413 14.0309 8.2051 15.6232 8.91897C17.2155 9.63268 19.1291 10.5193 20.8557 11.2927C22.5824 12.066 24.1224 12.7259 25.4026 13.0083C26.6829 13.2907 27.7034 13.1955 28.3922 12.847C29.081 12.4985 29.4383 11.8969 29.6496 11.2512C29.8611 10.6054 29.9269 9.91575 29.849 9.27877C29.7709 8.6418 29.549 8.05752 29.3021 7.54663C29.0551 7.03575 28.7831 6.59841 28.4752 6.15806Z" fill="white"/>
<path fill-rule="evenodd" clip-rule="evenodd" d="M24.8622 2.75694C25.3172 3.11152 25.709 3.49631 26.0195 3.89325C26.8657 4.97521 27.1067 6.14717 26.519 6.80756C25.9312 7.46796 24.5147 7.61679 22.7661 7.40001C21.0174 7.1834 18.9367 6.60118 16.8801 5.92735C14.8236 5.25353 12.7912 4.4881 11.1217 4.03857C9.45223 3.58919 7.99322 3.5029 7.24209 3.44343C6.49097 3.38412 6.2835 3.39942 6.21404 3.39047C6.19679 3.38823 6.18729 3.38455 6.18951 3.37912C6.17796 3.39718 6.224 3.42484 6.36198 3.44002C6.4998 3.45521 6.74145 3.45734 7.21345 3.51057C7.68546 3.56381 8.39972 3.6674 9.25861 3.87059C10.1175 4.07377 11.2736 4.32936 12.5909 4.78321C13.9082 5.23722 15.5393 5.84199 16.9898 6.33069C18.4403 6.81939 19.7103 7.19171 20.9367 7.4347C22.163 7.6777 23.3458 7.79136 24.2519 7.76914C25.1581 7.74692 25.7877 7.58865 26.2113 7.35349C26.6347 7.11834 26.8521 6.80612 26.9421 6.44931C27.0323 6.09249 26.9951 5.69092 26.8714 5.29941C26.7475 4.9079 26.5367 4.52631 26.2962 4.17317C26.0556 3.82003 25.785 3.49519 24.8622 2.75694Z" fill="white"/>
<path fill-rule="evenodd" clip-rule="evenodd" d="M21.3497 0.955383C21.7626 1.1313 22.1308 1.33365 22.4201 1.56577C23.1031 2.11391 23.3469 2.80573 23.0322 3.24688C22.7175 3.68804 21.8509 3.83347 20.7632 3.84414C19.6756 3.85465 18.3724 3.70738 17.1733 3.45966C15.9744 3.21194 14.8799 2.86376 13.7045 2.57274C12.5292 2.28187 11.2661 2.0786 10.5207 1.94773C9.77522 1.81687 9.54034 1.78869 9.3589 1.74188C9.22194 1.70654 9.11538 1.66069 9.1109 1.60019C9.11122 1.65002 9.1485 1.69444 9.19794 1.72628C9.24738 1.75812 9.30914 1.77723 9.64498 1.85078C9.98098 1.92433 10.5981 2.02173 11.3152 2.18301C12.0324 2.34428 12.8562 2.53914 13.6149 2.74484C14.3736 2.95053 15.0672 3.16689 15.8442 3.38165C16.6212 3.59642 17.4815 3.80943 18.3983 3.96259C19.3149 4.11574 20.288 4.20903 21.0775 4.15889C21.8669 4.10874 22.4727 3.91514 22.8248 3.69242C23.1768 3.46985 23.2756 3.21831 23.3109 2.99845C23.3463 2.77859 23.3184 2.59041 23.2189 2.368C23.1192 2.14559 22.9417 1.93417 22.6684 1.696C22.3951 1.45783 22.0199 1.23829 21.3497 0.955383Z" fill="white"/>
<path fill-rule="evenodd" clip-rule="evenodd" d="M17.9074 0.161911C18.0091 0.180379 18.1087 0.200757 18.2055 0.223205C18.869 0.376836 19.3991 0.627105 19.5802 0.86018C19.7615 1.09325 19.5938 1.30945 19.0896 1.46611C18.5855 1.62261 17.7447 1.71988 16.9119 1.71001C16.0791 1.69998 15.2541 1.58297 14.5415 1.39749C13.829 1.21186 13.2287 0.957772 13.096 0.737274C12.9931 0.566289 13.1714 0.415523 13.5147 0.29819C12.9776 0.479841 12.9347 0.651941 13.0661 0.845851C13.1976 1.03976 13.5034 1.25516 14.1471 1.45704C14.7907 1.65891 15.7722 1.84709 16.6968 1.88434C17.6215 1.92175 18.4891 1.80824 19.0027 1.67753C19.5165 1.54667 19.6759 1.39877 19.7506 1.24991C19.8253 1.10106 19.8152 0.951244 19.6776 0.812578C19.54 0.673752 19.2749 0.546229 18.9818 0.437652C18.6885 0.329075 18.3674 0.239443 17.9074 0.161911Z" fill="white"/>
<path fill-rule="evenodd" clip-rule="evenodd" d="M10.3384 30.21C12.4383 30.6311 15.082 30.6683 17.9496 29.574C20.8173 28.4795 23.9088 26.2535 26.036 23.9188C28.1632 21.5839 29.326 19.1405 29.9624 16.8593C30.5991 14.5781 30.7095 12.459 30.4244 10.7073C30.1391 8.95556 29.3981 7.56744 28.7057 6.50662C28.0133 5.44596 27.1869 4.4936 25.7773 3.60461C27.0508 4.3287 28.037 5.35432 28.7993 6.44799C29.8292 7.92593 30.5247 9.80154 30.7192 11.6349C30.9136 13.4683 30.6672 15.2631 30.0949 17.2002C29.5226 19.1373 28.6244 21.2166 27.0005 23.1956C25.3767 25.1745 23.0271 27.053 20.8836 28.3286C18.7402 29.6041 16.8029 30.2768 14.901 30.5303C12.9992 30.784 11.133 30.6184 9.54131 30.1694C7.94979 29.7202 6.66931 28.9852 5.55139 27.9911C6.72067 28.9839 8.23843 29.7888 10.3384 30.21Z" fill="white"/>
<defs>
<linearGradient id="paint0_linear" x1="-2.23312" y1="3.18339" x2="4.0971" y2="35.0363" gradientUnits="userSpaceOnUse">
<stop offset="0.000519012" stop-color="#B00000"/>
<stop offset="1" stop-color="#005CCD"/>
</linearGradient>
<linearGradient id="paint1_linear" x1="2.56909" y1="2.69386" x2="2.56909" y2="30.5768" gradientUnits="userSpaceOnUse">
<stop stop-color="#FFCC35" stop-opacity="0.6"/>
<stop offset="1" stop-color="#24E9FF" stop-opacity="0.6"/>
</linearGradient>
<linearGradient id="paint2_linear" x1="30.9868" y1="3.84033" x2="9.88259" y2="6.1241" gradientUnits="userSpaceOnUse">
<stop stop-color="#F9FF53" stop-opacity="0.6"/>
<stop offset="1" stop-color="#B8FF53" stop-opacity="0.6"/>
</linearGradient>
<linearGradient id="paint3_linear" x1="9.66675" y1="9.88542" x2="-1.82738" y2="20.5477" gradientUnits="userSpaceOnUse">
<stop stop-color="#33B1FF" stop-opacity="0.631501"/>
<stop offset="1" stop-color="#338BFF" stop-opacity="0.638139"/>
</linearGradient>
<linearGradient id="paint4_linear" x1="6.28668" y1="12.8286" x2="-0.624902" y2="20.0022" gradientUnits="userSpaceOnUse">
<stop stop-color="#0A76FF" stop-opacity="0.7"/>
<stop offset="1" stop-color="#0A4FFF" stop-opacity="0.7"/>
</linearGradient>
<radialGradient id="paint5_radial" cx="0" cy="0" r="1" gradientUnits="userSpaceOnUse" gradientTransform="translate(17.6601 4.47895) scale(10.7177 1.9708)">
<stop stop-color="#FF3000" stop-opacity="0.6"/>
<stop offset="1" stop-color="#FFB900" stop-opacity="0.6"/>
</radialGradient>
<linearGradient id="paint6_linear" x1="3.33325" y1="3.58395" x2="4.99702" y2="11.4919" gradientUnits="userSpaceOnUse">
<stop stop-color="#FF0400" stop-opacity="0.7"/>
<stop offset="1" stop-color="#FF8800" stop-opacity="0.7"/>
</linearGradient>
<linearGradient id="paint7_linear" x1="6.50519" y1="1.1439" x2="7.33592" y2="6.24778" gradientUnits="userSpaceOnUse">
<stop stop-color="#BC0000" stop-opacity="0.8"/>
<stop offset="1" stop-color="#EC1A00" stop-opacity="0.8"/>
</linearGradient>
</defs>
</svg>
