<svg width="33" height="32" viewBox="0 0 33 32" fill="none" xmlns="http://www.w3.org/2000/svg">
<path fill-rule="evenodd" clip-rule="evenodd" d="M32.1416 16C32.1416 13.9059 31.725 11.8118 30.9237 9.87712C30.1224 7.9424 28.9362 6.16704 27.4552 4.6864C25.9746 3.20544 24.1992 2.0192 22.2645 1.21792C20.3298 0.41664 18.2357 0 16.1416 0C14.0475 0 11.9534 0.41664 10.0187 1.21792C8.084 2.0192 6.30864 3.20544 4.828 4.6864C3.34704 6.16704 2.1608 7.9424 1.35952 9.87712C0.558241 11.8118 0.141602 13.9059 0.141602 16C0.141602 18.0941 0.558241 20.1882 1.35952 22.1229C2.1608 24.0576 3.34704 25.833 4.828 27.3136C6.30864 28.7946 8.084 29.9808 10.0187 30.7821C11.9534 31.5834 14.0475 32 16.1416 32C18.2357 32 20.3298 31.5834 22.2645 30.7821C24.1992 29.9808 25.9746 28.7946 27.4552 27.3136C28.9362 25.833 30.1224 24.0576 30.9237 22.1229C31.725 20.1882 32.1416 18.0941 32.1416 16Z" fill="#0657F9"/>
<path fill-rule="evenodd" clip-rule="evenodd" d="M26.5593 12.2965C26.5273 12.2746 26.4742 12.2334 26.406 12.1764C25.2131 11.1755 24.991 11.141 24.8342 11.2174C24.6579 11.2709 24.5542 11.3739 24.1356 13.1218C24.1097 13.2292 24.0905 13.3091 24.0812 13.349C23.8531 14.3378 23.9107 14.6071 24.0236 14.7317C24.0707 14.7836 24.1308 14.8207 24.199 14.8391C24.2659 14.8698 24.3478 14.8745 24.4236 14.8482C24.6828 14.7589 24.9059 14.3619 25.0499 13.9336C25.0729 14.0581 25.0902 14.1826 25.1043 14.3081C25.1177 14.4326 25.1305 14.558 25.1398 14.6873C25.15 14.8299 25.1583 14.968 25.1628 15.1109C25.1673 15.249 25.1721 15.3916 25.1721 15.5298C25.1721 15.6726 25.1628 15.8152 25.1583 15.9534C25.1539 16.0839 25.1398 16.2081 25.1305 16.3326C25.1209 16.4628 25.1043 16.587 25.0857 16.7115C25.0665 16.8408 25.0499 16.9663 25.0326 17.0905C25.0169 17.2029 24.991 17.3145 24.9692 17.4206C24.9398 17.5638 24.9059 17.6981 24.8745 17.8363C24.8431 17.9754 24.7974 18.1126 24.7571 18.246C24.7196 18.3701 24.6809 18.4915 24.6406 18.6113C24.5999 18.7323 24.5542 18.8524 24.5091 18.9734C24.4639 19.0951 24.4099 19.2142 24.3603 19.3295C24.3081 19.4509 24.2531 19.5659 24.199 19.6825C23.8745 20.3795 23.4598 20.9976 22.9731 21.5958C22.8991 21.6867 22.8163 21.7786 22.7388 21.8677C22.6601 21.9586 22.5775 22.0457 22.4956 22.1303C22.286 22.3467 22.0633 22.5631 21.8383 22.764C21.7462 22.8463 21.6537 22.9249 21.5593 22.9959C20.7193 23.6245 19.8745 24.165 18.9011 24.5439C18.7811 24.5908 18.6534 24.633 18.5369 24.6729C18.4095 24.7166 18.2889 24.753 18.1631 24.793C18.0415 24.8316 17.9151 24.8649 17.7884 24.8956C17.2825 25.0185 16.7887 25.1104 16.271 25.1592C16.1126 25.1744 15.9596 25.1855 15.8025 25.1947C15.6899 25.2014 15.5766 25.2039 15.4601 25.2039C15.3206 25.2039 15.1766 25.2083 15.0371 25.2039C14.8927 25.1991 14.7487 25.1903 14.6079 25.1811C14.4777 25.1725 14.3519 25.1592 14.2252 25.1456C14.1129 25.1336 14.0003 25.1193 13.8873 25.1057C13.7423 25.0882 13.6035 25.0613 13.4639 25.0338C13.3388 25.0094 13.2127 24.9846 13.0857 24.9539C12.9468 24.92 12.8115 24.8877 12.6716 24.8509C12.5443 24.8177 12.4239 24.7803 12.3017 24.7404C12.1759 24.6992 12.055 24.6593 11.9327 24.6149C11.879 24.5953 11.8249 24.5756 11.7711 24.5566C11.6031 24.4967 11.4195 24.5167 11.2751 24.6193C11.1279 24.7242 11.0457 24.8912 11.0505 25.0702C11.0617 25.5068 11.5775 25.8639 12.5542 26.1265H12.5587C12.6809 26.1585 12.8022 26.1892 12.9276 26.22C13.0636 26.2532 13.2035 26.2783 13.343 26.3058C13.4867 26.334 13.6265 26.3549 13.766 26.3765C13.9059 26.3983 14.0451 26.4164 14.1894 26.4348C14.3286 26.4522 14.4684 26.4611 14.6124 26.47C14.7523 26.4788 14.8963 26.4883 15.0371 26.4931C15.1811 26.4975 15.3206 26.502 15.4649 26.4975C15.6041 26.4931 15.7484 26.4975 15.8879 26.4883C16.0134 26.4801 16.1404 26.4747 16.2662 26.4655C16.4243 26.4541 16.5811 26.4392 16.7343 26.4164C16.8787 26.4037 17.0182 26.3809 17.1577 26.3594C17.2985 26.3375 17.4377 26.3103 17.5772 26.2827C17.7167 26.2555 17.8566 26.2247 17.9961 26.1937C18.1366 26.1626 18.2703 26.123 18.4099 26.0818C18.5491 26.041 18.6857 26.002 18.8204 25.9573C18.9596 25.9117 19.0902 25.8683 19.2252 25.8192C19.3612 25.7698 19.4963 25.7165 19.6313 25.6582C19.7606 25.6025 19.8931 25.5477 20.0278 25.4894C20.1398 25.4311 20.2572 25.3775 20.3737 25.3192C20.5055 25.2533 20.631 25.1855 20.7577 25.1149C20.8697 25.0524 20.9827 24.9846 21.0947 24.9184C21.2044 24.8535 21.3161 24.7803 21.4243 24.7084C21.5347 24.6352 21.6399 24.5658 21.7484 24.4904C21.8572 24.4147 21.9641 24.3339 22.0678 24.254C22.1721 24.1736 22.2755 24.0931 22.3791 24.0085C22.4828 23.9239 22.582 23.8349 22.6847 23.7458C22.7721 23.6701 22.8566 23.5893 22.942 23.5085C23.0038 23.4496 23.0643 23.3932 23.1263 23.3349C23.2211 23.2367 23.311 23.1429 23.4054 23.0447C23.5001 22.9468 23.5865 22.8486 23.6764 22.7456C23.7615 22.6483 23.8473 22.546 23.9324 22.443C24.0166 22.342 24.095 22.233 24.1759 22.1303C24.2473 22.0394 24.3119 21.9475 24.374 21.8493C24.4595 21.734 24.5414 21.6085 24.622 21.4887C24.6873 21.3918 24.7443 21.2967 24.8019 21.1985C24.8748 21.0743 24.9462 20.9485 25.0188 20.8196C25.0809 20.7093 25.1353 20.5968 25.1942 20.4806C25.2524 20.3649 25.3071 20.2534 25.3612 20.1324C25.4191 20.0031 25.4732 19.8741 25.5273 19.7404C25.582 19.6061 25.6358 19.4768 25.6854 19.3431C25.7292 19.2246 25.766 19.1023 25.8063 18.9826C25.8515 18.8489 25.8883 18.7095 25.9286 18.5761C25.9699 18.4392 26.0003 18.3042 26.0326 18.1617C26.0627 18.0277 26.0947 17.8898 26.1225 17.7517C26.1475 17.6265 26.1673 17.5061 26.1894 17.3807C26.2134 17.2425 26.2307 17.0997 26.2479 16.9615C26.2636 16.8373 26.2758 16.7115 26.2838 16.587C26.2927 16.4489 26.3023 16.3107 26.3116 16.1682C26.3196 16.0427 26.3206 15.9179 26.3206 15.7937C26.3206 15.6372 26.3206 15.4806 26.3161 15.3241C26.3126 15.1999 26.3023 15.0754 26.2975 14.9496C26.2921 14.7941 26.2713 14.6426 26.2527 14.4861C26.2358 14.3439 26.2217 14.2054 26.1983 14.0673C26.1756 13.9291 26.1535 13.791 26.127 13.6481C26.1068 13.5404 26.0822 13.4288 26.0588 13.3227C26.4153 13.6037 26.9423 13.9462 27.2755 13.8524C27.3615 13.8284 27.4335 13.7726 27.4739 13.702C27.5235 13.6437 27.5545 13.5717 27.5593 13.4919C27.5753 13.2112 27.2307 12.8091 26.5593 12.2965Z" fill="white"/>
<path fill-rule="evenodd" clip-rule="evenodd" d="M11.7932 19.3343C12.3343 18.7985 11.7529 17.3497 10.4959 16.1099C9.2415 14.872 7.78038 14.29 7.23958 14.8255C6.69846 15.3609 7.2799 16.8098 8.53206 18.0543C9.78454 19.2988 11.2524 19.8697 11.7932 19.3343Z" fill="white"/>
<path fill-rule="evenodd" clip-rule="evenodd" d="M19.3836 11.8146C19.9244 11.2801 19.3433 9.83027 18.0908 8.59019C16.8386 7.35011 15.375 6.77474 14.8342 7.31019C14.2934 7.84563 14.8745 9.29482 16.127 10.5346C17.3794 11.7747 18.8428 12.35 19.3836 11.8146Z" fill="white"/>
</svg>
