<svg width="166" height="167" viewBox="0 0 166 167" fill="none" xmlns="http://www.w3.org/2000/svg">
<path fill-rule="evenodd" clip-rule="evenodd" d="M147.908 100.97C150.195 92.4369 150.783 83.4486 149.631 74.6897C148.478 65.9308 145.583 57.401 141.164 49.7503C136.748 42.0987 130.808 35.3263 123.799 29.9485C116.79 24.5708 108.712 20.5865 100.179 18.3C91.6451 16.0135 82.6568 15.4248 73.8979 16.5775C65.139 17.7302 56.6092 20.6256 48.9585 25.0438C41.3069 29.4604 34.5345 35.3997 29.1568 42.4088C23.7791 49.4179 19.7947 57.4963 17.5082 66.0297C15.2217 74.5631 14.633 83.5514 15.7857 92.3103C16.9384 101.069 19.8339 109.599 24.2521 117.25C28.6686 124.901 34.608 131.674 41.617 137.051C48.6261 142.429 56.7046 146.413 65.2379 148.7C73.7713 150.986 82.7596 151.575 91.5185 150.422C100.277 149.27 108.807 146.374 116.458 141.956C124.11 137.54 130.882 131.6 136.26 124.591C141.637 117.582 145.622 109.504 147.908 100.97Z" fill="#0657F9"/>
<path fill-rule="evenodd" clip-rule="evenodd" d="M87.0137 53.954L93.7527 55.7597L78.1326 114.055L71.3935 112.249L87.0137 53.954Z" fill="white"/>
<path fill-rule="evenodd" clip-rule="evenodd" d="M76.4305 80.7244L78.2716 73.8532C73.1903 69.8141 70.6957 63.0487 72.4686 56.4319C74.8591 47.5104 84.1054 42.2332 93.1187 44.6483C102.597 47.1882 107.965 56.3811 105.575 65.3026C104.972 67.5516 103.932 69.5688 102.13 71.8134L101.735 61.7787L95.4861 62.0182L95.436 82.6674L117.236 80.7553L116.331 74.47L108.252 74.9952C110.364 72.4766 111.194 70.4311 112.1 67.051C115.447 54.5584 107.932 41.6904 94.8505 38.1851C82.233 34.8043 69.2908 42.1909 65.9434 54.6834C63.2004 64.9205 67.7533 75.4118 76.4305 80.7244Z" fill="white"/>
<path fill-rule="evenodd" clip-rule="evenodd" d="M88.7156 87.2847L86.8745 94.1559C91.9554 98.1963 94.4504 104.96 92.6774 111.577C90.287 120.499 81.0407 125.776 72.0274 123.361C62.5486 120.821 57.181 111.628 59.5715 102.707C60.1741 100.457 61.2136 98.4403 63.0156 96.1957L63.4114 106.23L69.66 105.991L69.7101 85.3417L47.9102 87.2551L48.8148 93.5391L56.894 93.0139C54.7824 95.5325 53.952 97.578 53.0463 100.958C49.6989 113.451 57.2139 126.319 70.2956 129.824C82.9131 133.205 95.8553 125.818 99.2027 113.326C101.946 103.089 97.3924 92.5986 88.7156 87.2847Z" fill="white"/>
</svg>
