<svg width="16" height="16" viewBox="0 0 16 16" fill="none" xmlns="http://www.w3.org/2000/svg">
<path fill-rule="evenodd" clip-rule="evenodd" d="M13.0308 8.22C13.1713 8.36063 13.2502 8.55125 13.2502 8.75C13.2502 8.94875 13.1713 9.13937 13.0308 9.28L8.78082 13.53C8.6402 13.6705 8.44957 13.7493 8.25082 13.7493C8.05207 13.7493 7.86145 13.6705 7.72082 13.53L3.47082 9.28C3.33834 9.13783 3.26622 8.94978 3.26965 8.75548C3.27308 8.56118 3.35179 8.37579 3.4892 8.23838C3.62661 8.10097 3.812 8.02225 4.0063 8.01882C4.2006 8.0154 4.38865 8.08752 4.53082 8.22L7.50082 11.19V3.75C7.50082 3.55109 7.57984 3.36032 7.72049 3.21967C7.86115 3.07902 8.05191 3 8.25082 3C8.44974 3 8.6405 3.07902 8.78115 3.21967C8.9218 3.36032 9.00082 3.55109 9.00082 3.75V11.19L11.9708 8.22C12.1114 8.07955 12.3021 8.00066 12.5008 8.00066C12.6996 8.00066 12.8902 8.07955 13.0308 8.22Z" fill="white"/>
</svg>
