<svg width="40" height="40" viewBox="0 0 40 40" fill="none" xmlns="http://www.w3.org/2000/svg">
<g clip-path="url(#clip0)">
<path d="M37.3442 37.3435C33.803 40.8847 28.0615 40.8847 24.5202 37.3435L2.65814 15.4814C-0.883035 11.9402 -0.883035 6.19881 2.65814 2.65756C6.19931 -0.883614 11.9407 -0.883614 15.482 2.65756L37.3442 24.5197C40.8853 28.0608 40.8853 33.8023 37.3442 37.3435Z" fill="#0657F9"/>
<path d="M27.4717 35.2834L4.71829 12.5299C1.76986 9.58141 1.46798 4.99805 3.79603 1.70477C3.399 1.98969 3.01493 2.30071 2.65814 2.65751C-0.883035 6.19868 -0.883035 11.9402 2.65814 15.4814L24.5203 37.3436C28.0615 40.8848 33.803 40.8848 37.3442 37.3436C37.701 36.9868 38.012 36.6027 38.297 36.2057C35.0035 38.5336 30.4202 38.2317 27.4717 35.2834Z" fill="#4583FF"/>
<path d="M26.4163 13.5894L13.5912 26.4145L2.65617 15.4795C-0.885471 11.9378 -0.885471 6.20072 2.65617 2.65908C2.76593 2.54931 2.88047 2.44423 2.995 2.33923C3.0714 2.27236 3.14297 2.21041 3.21929 2.14353C4.90429 0.7165 6.98539 0.000640869 9.0664 0.000640869C11.3861 0.000640869 13.7105 0.88361 15.4813 2.65447L26.4163 13.5894Z" fill="#003BB1"/>
<path d="M4.7182 12.5298L16.097 23.9086L13.5912 26.4144L2.65617 15.4795C-0.885471 11.9378 -0.885471 6.20072 2.65617 2.65908C2.76593 2.54931 2.88047 2.44423 2.995 2.33923C3.0714 2.27236 3.14297 2.21041 3.21929 2.14353C3.41023 1.9908 3.60117 1.84751 3.79211 1.70447C1.46773 5.00275 1.76836 9.58001 4.7182 12.5298Z" fill="#4175DB"/>
<path d="M8.85446 4.67304C10.3458 4.67304 11.5548 4.03085 11.5548 3.23867C11.5548 2.44648 10.3458 1.80429 8.85446 1.80429C7.36312 1.80429 6.15414 2.44648 6.15414 3.23867C6.15414 4.03085 7.36312 4.67304 8.85446 4.67304Z" fill="#4175DB"/>
</g>
<defs>
<clipPath id="clip0">
<rect width="40" height="40" fill="white"/>
</clipPath>
</defs>
</svg>
