<svg width="10" height="16" viewBox="0 0 10 16" fill="none" xmlns="http://www.w3.org/2000/svg">
<path d="M9.92308 8.26667C10 8.2 10 8.06667 10 8C10 7.8 9.92308 7.66667 9.76923 7.53333L1.30769 0.2C1.15385 0.0666667 1 0 0.769231 0C0.307692 0 0 0.266667 0 0.666667C0 0.866667 0.0769232 1 0.230769 1.13333L8.15385 8L0.230769 14.8667C0.0769232 15 0 15.1333 0 15.3333C0 15.7333 0.307692 16 0.769231 16C1 16 1.15385 15.9333 1.30769 15.8L9.76923 8.46667C9.84615 8.4 9.92308 8.33333 9.92308 8.26667Z" fill="white"/>
</svg>
