<svg width="16" height="16" viewBox="0 0 16 16" fill="none" xmlns="http://www.w3.org/2000/svg">
<path fill-rule="evenodd" clip-rule="evenodd" d="M1.55556 0C0.696446 0 0 0.696446 0 1.55556V10C0 10.8587 0.696889 11.5556 1.55556 11.5556H2.88889C3.25708 11.5556 3.55556 11.2571 3.55556 10.8889C3.55556 10.5207 3.25708 10.2222 2.88889 10.2222H1.55556C1.43283 10.2222 1.33333 10.1227 1.33333 10V1.55556C1.33333 1.43283 1.43283 1.33333 1.55556 1.33333H10C10.1227 1.33333 10.2222 1.43283 10.2222 1.55556V2.88889C10.2222 3.25708 10.5207 3.55556 10.8889 3.55556C11.2571 3.55556 11.5556 3.25708 11.5556 2.88889V1.55556C11.5556 0.696446 10.8591 0 10 0H1.55556ZM6 4.44444C5.14089 4.44444 4.44444 5.14089 4.44444 6V14.4444C4.44444 15.3031 5.14133 16 6 16H14.4444C15.3036 16 16 15.3036 16 14.4444V6C16 5.14089 15.3036 4.44444 14.4444 4.44444H6ZM5.77778 6C5.77778 5.87727 5.87727 5.77778 6 5.77778H14.4444C14.5672 5.77778 14.6667 5.87727 14.6667 6V14.4444C14.6667 14.5672 14.5672 14.6667 14.4444 14.6667H6C5.87727 14.6667 5.77778 14.5672 5.77778 14.4444V6Z" fill="white"/>
</svg>
