<svg width="16" height="16" viewBox="0 0 16 16" fill="none" xmlns="http://www.w3.org/2000/svg">
<path fill-rule="evenodd" clip-rule="evenodd" d="M10.604 1H14.75C14.8881 1 15 1.11193 15 1.25V5.396C15.0002 5.49725 14.9393 5.58862 14.8457 5.62739C14.7522 5.66617 14.6445 5.64469 14.573 5.573L13.03 4.03L9.28 7.78C8.98449 8.05536 8.52399 8.04723 8.23838 7.76162C7.95277 7.47601 7.94464 7.01551 8.22 6.72L11.97 2.97L10.427 1.427C10.3553 1.35549 10.3338 1.24781 10.3726 1.15427C10.4114 1.06073 10.5027 0.999819 10.604 1ZM3.75 2C2.7835 2 2 2.7835 2 3.75V12.25C2 13.216 2.784 14 3.75 14H12.25C13.2165 14 14 13.2165 14 12.25V8.75C14 8.33579 13.6642 8 13.25 8C12.8358 8 12.5 8.33579 12.5 8.75V12.25C12.5 12.3881 12.3881 12.5 12.25 12.5H3.75C3.61193 12.5 3.5 12.3881 3.5 12.25V3.75C3.5 3.61193 3.61193 3.5 3.75 3.5H7.25C7.66421 3.5 8 3.16421 8 2.75C8 2.33579 7.66421 2 7.25 2H3.75Z" fill="black"/>
</svg>
