<svg width="12" height="15" viewBox="0 0 12 15" fill="none" xmlns="http://www.w3.org/2000/svg">
<g opacity="0.75">
<path fill-rule="evenodd" clip-rule="evenodd" d="M5.5 13.75C5.5 14.1642 5.83579 14.5 6.25 14.5C6.66421 14.5 7 14.1642 7 13.75L7 1.25C7 0.835787 6.66421 0.5 6.25 0.5C5.83579 0.5 5.5 0.835787 5.5 1.25L5.5 13.75ZM10.75 14.5C10.3358 14.5 10 14.1642 10 13.75V5.25C10 4.83579 10.3358 4.5 10.75 4.5C11.1642 4.5 11.5 4.83579 11.5 5.25V13.75C11.5 13.9489 11.421 14.1397 11.2803 14.2803C11.1397 14.421 10.9489 14.5 10.75 14.5ZM1 13.75L1 7.25C1 6.83579 1.33579 6.5 1.75 6.5C2.16421 6.5 2.5 6.83579 2.5 7.25L2.5 13.75C2.5 14.1642 2.16421 14.5 1.75 14.5C1.33579 14.5 1 14.1642 1 13.75Z" fill="white"/>
</g>
</svg>
