<svg width="186" height="40" viewBox="0 0 186 40" fill="none" xmlns="http://www.w3.org/2000/svg">
<path d="M20.344 7.92545C23.5403 10.7449 27.7438 12.2027 32.0321 11.9788C32.3698 13.2641 32.5502 14.6108 32.5502 16.0001C32.5502 23.4561 27.3639 29.7201 20.344 31.4961C13.324 29.7201 8.1377 23.4548 8.1377 16.0001C8.1366 14.6435 8.31068 13.2923 8.65577 11.9788C12.9441 12.2027 17.1477 10.7449 20.344 7.92545Z" fill="url(#paint0_linear)"/>
<path d="M15.1123 20.7429L18.1016 23.7143L25.5748 16.2858" stroke="white" stroke-width="2.66667" stroke-linecap="round" stroke-linejoin="round"/>
<path d="M48.8499 13.2262L45.7443 8.08413C45.7293 8.0587 45.7075 8.03756 45.6812 8.02281C45.6549 8.00801 45.6249 8.00013 45.5944 7.99996C45.5639 7.99979 45.5339 8.00727 45.5074 8.02173C45.4808 8.03619 45.4588 8.0571 45.4434 8.0823L44.5133 9.6231C44.4828 9.6735 44.4668 9.7307 44.4668 9.78899C44.4668 9.84721 44.4828 9.90441 44.5133 9.95487L46.5384 13.3094C46.5689 13.3599 46.6127 13.4018 46.6655 13.4309C46.7184 13.46 46.7783 13.4753 46.8393 13.4753H48.6995C48.7299 13.4752 48.7598 13.4675 48.7862 13.4529C48.8125 13.4383 48.8344 13.4173 48.8497 13.3921C48.8649 13.3669 48.8729 13.3383 48.873 13.3092C48.873 13.2801 48.8651 13.2515 48.8499 13.2262Z" fill="#CACED4"/>
<path d="M40.7124 15.9138L43.818 10.7717C43.8333 10.7465 43.8552 10.7255 43.8815 10.711C43.9079 10.6965 43.9378 10.6889 43.9682 10.6889C43.9987 10.6889 44.0286 10.6965 44.055 10.711C44.0813 10.7255 44.1032 10.7465 44.1184 10.7717L45.049 12.3111C45.0795 12.3616 45.0955 12.4189 45.0955 12.4772C45.0955 12.5355 45.0795 12.5928 45.049 12.6433L43.0239 15.9979C42.9936 16.0483 42.9498 16.0903 42.8971 16.1194C42.8443 16.1485 42.7845 16.1638 42.7236 16.1638H40.8629C40.8322 16.1639 40.8021 16.1563 40.7755 16.1417C40.7489 16.1271 40.7269 16.106 40.7116 16.0806C40.6963 16.0552 40.6883 16.0264 40.6885 15.9971C40.6886 15.9678 40.6969 15.939 40.7124 15.9138Z" fill="#CACED4"/>
<path d="M44.1177 16.1621H50.3289C50.3594 16.162 50.3893 16.1543 50.4157 16.1397C50.4421 16.1252 50.4639 16.1042 50.4792 16.0789C50.4943 16.0537 50.5023 16.025 50.5023 15.9959C50.5022 15.9668 50.4942 15.9382 50.4789 15.913L49.5497 14.3726C49.5193 14.3222 49.4754 14.2802 49.4226 14.2511C49.3698 14.222 49.3099 14.2067 49.2488 14.2068H45.1987C45.1378 14.2067 45.0778 14.222 45.025 14.2511C44.9722 14.2802 44.9283 14.3222 44.8978 14.3726L43.9678 15.913C43.9525 15.9382 43.9444 15.9668 43.9443 15.9959C43.9443 16.025 43.9523 16.0537 43.9675 16.0789C43.9827 16.1042 44.0046 16.1252 44.0309 16.1397C44.0573 16.1543 44.0872 16.162 44.1177 16.1621Z" fill="#CACED4"/>
<path d="M55.724 13.0473V12.9322C55.724 12.6431 55.6221 12.4217 55.4184 12.2684C55.2209 12.109 54.9617 12.0293 54.6407 12.0293C54.3938 12.0293 54.1994 12.0707 54.0575 12.1533C53.9217 12.23 53.7921 12.348 53.6686 12.5073C53.6316 12.5545 53.5914 12.587 53.5482 12.6047C53.505 12.6224 53.4464 12.6312 53.3723 12.6312H53.0946C53.0267 12.6312 52.9649 12.6076 52.9094 12.5604C52.86 12.5132 52.8384 12.4572 52.8446 12.3923C52.8631 12.2152 52.9526 12.0412 53.113 11.87C53.2797 11.693 53.4988 11.5484 53.7704 11.4363C54.042 11.3242 54.3321 11.2681 54.6407 11.2681C55.2148 11.2681 55.6777 11.4216 56.0295 11.7284C56.3875 12.0353 56.5665 12.466 56.5665 13.0207V15.7204C56.5665 15.7853 56.5418 15.8413 56.4924 15.8885C56.4431 15.9357 56.3844 15.9593 56.3165 15.9593H55.9739C55.9061 15.9593 55.8474 15.9357 55.7981 15.8885C55.7487 15.8413 55.724 15.7853 55.724 15.7204V15.3575C55.6252 15.5699 55.4154 15.7381 55.0944 15.862C54.7734 15.9859 54.4525 16.0479 54.1315 16.0479C53.8167 16.0479 53.5359 15.9948 53.289 15.8885C53.0421 15.7764 52.8507 15.626 52.7149 15.4371C52.5853 15.2483 52.5205 15.0359 52.5205 14.7998C52.5205 14.3572 52.6933 14.012 53.039 13.7642C53.3847 13.5105 53.8445 13.3393 54.4185 13.2508L55.724 13.0473ZM55.724 13.7553L54.6315 13.9235C54.2303 13.9825 53.9185 14.0799 53.6964 14.2156C53.4742 14.3455 53.363 14.5107 53.363 14.7113C53.363 14.8588 53.434 14.9916 53.576 15.1096C53.7179 15.2276 53.934 15.2867 54.2241 15.2867C54.6685 15.2867 55.0296 15.1657 55.3074 14.9237C55.5851 14.6818 55.724 14.3661 55.724 13.9767V13.7553Z" fill="#CACED4"/>
<path d="M58.7597 15.7204C58.7597 15.7853 58.7347 15.8414 58.6853 15.8886C58.6359 15.9358 58.5772 15.9594 58.5098 15.9594H58.1668C58.0991 15.9594 58.0405 15.9358 57.9911 15.8886C57.9417 15.8414 57.917 15.7853 57.917 15.7204V9.91397C57.917 9.84906 57.9417 9.793 57.9911 9.7458C58.0405 9.69854 58.0991 9.67494 58.1668 9.67494H58.5098C58.5772 9.67494 58.6359 9.69854 58.6853 9.7458C58.7347 9.793 58.7597 9.84906 58.7597 9.91397V15.7204Z" fill="#CACED4"/>
<path d="M62.0936 15.2867C62.7109 15.2867 63.1276 15.0565 63.3439 14.5963C63.3869 14.5077 63.4305 14.4457 63.4735 14.4104C63.5165 14.3749 63.5752 14.3572 63.649 14.3572H63.9269C63.9949 14.3572 64.0536 14.3809 64.103 14.4281C64.1524 14.4694 64.1768 14.5195 64.1768 14.5785C64.1768 14.7792 64.0937 14.9945 63.9269 15.2247C63.7606 15.4548 63.5194 15.6496 63.2049 15.8089C62.8899 15.9682 62.5196 16.0479 62.0936 16.0479C61.6559 16.0479 61.2758 15.9593 60.9549 15.7823C60.6341 15.6053 60.387 15.3633 60.2144 15.0565C60.0418 14.7437 59.9459 14.3956 59.9273 14.012C59.9215 13.9412 59.918 13.8055 59.918 13.6049C59.918 13.4633 59.9215 13.3629 59.9273 13.304C59.9831 12.7021 60.1958 12.2123 60.5661 11.8347C60.9363 11.457 61.4455 11.2681 62.0936 11.2681C62.5196 11.2681 62.887 11.3478 63.1956 11.5071C63.5107 11.6605 63.7478 11.8523 63.9082 12.0825C64.0751 12.3067 64.1646 12.5191 64.1768 12.7197C64.1832 12.7847 64.1588 12.8407 64.103 12.8879C64.0536 12.9352 63.9949 12.9588 63.9269 12.9588H63.649C63.5752 12.9588 63.5165 12.9411 63.4735 12.9056C63.4305 12.8703 63.3869 12.8083 63.3439 12.7197C63.1276 12.2595 62.7109 12.0293 62.0936 12.0293C61.7541 12.0293 61.4583 12.1385 61.2049 12.3569C60.952 12.5752 60.8067 12.9056 60.7701 13.3482C60.7637 13.4131 60.7608 13.5193 60.7608 13.6668C60.7608 13.8026 60.7637 13.9029 60.7701 13.9678C60.8131 14.4104 60.9584 14.7408 61.2049 14.9592C61.4583 15.1775 61.7541 15.2867 62.0936 15.2867Z" fill="#CACED4"/>
<path d="M69.5626 15.7204C69.5626 15.7853 69.5376 15.8414 69.4888 15.8886C69.4394 15.9358 69.3806 15.9594 69.3126 15.9594H68.9703C68.9023 15.9594 68.8436 15.9358 68.7942 15.8886C68.7448 15.8414 68.7198 15.7853 68.7198 15.7204V13.3837C68.7198 12.9411 68.6058 12.6048 68.3774 12.3746C68.149 12.1445 67.831 12.0294 67.4236 12.0294C67.0225 12.0294 66.7046 12.1445 66.4703 12.3746C66.2419 12.6048 66.1274 12.9411 66.1274 13.3837V15.7204C66.1274 15.7853 66.103 15.8414 66.0536 15.8886C66.0042 15.9358 65.9455 15.9594 65.8774 15.9594H65.5351C65.4671 15.9594 65.4084 15.9358 65.359 15.8886C65.3096 15.8414 65.2852 15.7853 65.2852 15.7204V9.91397C65.2852 9.84906 65.3096 9.793 65.359 9.7458C65.4084 9.69854 65.4671 9.67494 65.5351 9.67494H65.8774C65.9455 9.67494 66.0042 9.69854 66.0536 9.7458C66.103 9.793 66.1274 9.84906 66.1274 9.91397V11.8701C66.2634 11.6989 66.4488 11.5573 66.6831 11.4452C66.9237 11.3272 67.2172 11.2682 67.5625 11.2682C67.9513 11.2682 68.2972 11.3479 68.5994 11.5072C68.9023 11.6665 69.1365 11.8967 69.3033 12.1976C69.476 12.4927 69.5626 12.8437 69.5626 13.2509V15.7204Z" fill="#CACED4"/>
<path d="M72.8079 11.2681C73.4682 11.2681 73.9896 11.4688 74.3727 11.87C74.7551 12.2713 74.9464 12.8171 74.9464 13.5075V13.7465C74.9464 13.8114 74.922 13.8675 74.8725 13.9147C74.8231 13.9619 74.7644 13.9855 74.6964 13.9855H71.5118V14.0386C71.524 14.4281 71.6472 14.7349 71.882 14.9592C72.1227 15.1775 72.4313 15.2867 72.8079 15.2867C73.1166 15.2867 73.3543 15.2483 73.5206 15.1716C73.6938 15.0949 73.8478 14.9857 73.9838 14.8441C74.0332 14.7969 74.0762 14.7644 74.1134 14.7467C74.1564 14.729 74.2122 14.7201 74.2797 14.7201H74.5575C74.6319 14.7201 74.6935 14.7437 74.7429 14.7909C74.7923 14.8382 74.8138 14.8943 74.8074 14.9592C74.783 15.1185 74.6906 15.2837 74.5296 15.4548C74.3756 15.62 74.15 15.7617 73.8542 15.8797C73.5641 15.9918 73.2154 16.0479 72.8079 16.0479C72.4127 16.0479 72.061 15.9623 71.7524 15.7912C71.4438 15.6141 71.1967 15.3722 71.0119 15.0653C70.8329 14.7585 70.7247 14.4133 70.6875 14.0297C70.6753 13.8527 70.6689 13.717 70.6689 13.6226C70.6689 13.5282 70.6753 13.3925 70.6875 13.2155C70.7247 12.8496 70.8329 12.5191 71.0119 12.2241C71.1967 11.9291 71.4408 11.696 71.7431 11.5248C72.0517 11.3537 72.4069 11.2681 72.8079 11.2681ZM74.1134 13.242V13.2155C74.1134 12.8555 73.9931 12.5693 73.7519 12.3569C73.5177 12.1385 73.2026 12.0293 72.8079 12.0293C72.4499 12.0293 72.1442 12.1385 71.8913 12.3569C71.6443 12.5752 71.5176 12.8614 71.5118 13.2155V13.242H74.1134Z" fill="#CACED4"/>
<path d="M76.9077 11.87C77.0559 11.6871 77.2227 11.5425 77.4081 11.4363C77.5929 11.3242 77.84 11.2681 78.1486 11.2681C78.8705 11.2681 79.3768 11.5248 79.6668 12.0382C79.8458 11.7904 80.0498 11.6016 80.2783 11.4717C80.5061 11.336 80.8054 11.2681 81.1763 11.2681C81.7808 11.2681 82.2283 11.4422 82.5184 11.7904C82.8148 12.1385 82.963 12.6312 82.963 13.2685V15.7204C82.963 15.7853 82.938 15.8413 82.8886 15.8885C82.8392 15.9357 82.7811 15.9593 82.7131 15.9593H82.3701C82.3027 15.9593 82.244 15.9357 82.1946 15.8885C82.1452 15.8413 82.1202 15.7853 82.1202 15.7204V13.3571C82.1202 12.4719 81.7564 12.0293 81.0281 12.0293C80.6944 12.0293 80.4294 12.1356 80.2318 12.348C80.0341 12.5604 79.9353 12.8761 79.9353 13.2951V15.7204C79.9353 15.7853 79.9109 15.8413 79.8615 15.8885C79.8121 15.9357 79.7534 15.9593 79.6854 15.9593H79.343C79.275 15.9593 79.2163 15.9357 79.1669 15.8885C79.1175 15.8413 79.0931 15.7853 79.0931 15.7204V13.3571C79.0931 12.4719 78.7287 12.0293 78.0004 12.0293C77.6673 12.0293 77.4017 12.1356 77.2041 12.348C77.0065 12.5604 76.9077 12.8761 76.9077 13.2951V15.7204C76.9077 15.7853 76.8832 15.8413 76.8338 15.8885C76.7844 15.9357 76.7257 15.9593 76.6577 15.9593H76.3154C76.2474 15.9593 76.1887 15.9357 76.1392 15.8885C76.0898 15.8413 76.0654 15.7853 76.0654 15.7204V11.5956C76.0654 11.5307 76.0898 11.4746 76.1392 11.4274C76.1887 11.3802 76.2474 11.3566 76.3154 11.3566H76.6577C76.7257 11.3566 76.7844 11.3802 76.8338 11.4274C76.8832 11.4746 76.9077 11.5307 76.9077 11.5956V11.87Z" fill="#CACED4"/>
<path d="M85.5539 17.4289C85.4981 17.5705 85.4086 17.6413 85.2854 17.6413H84.9058C84.8442 17.6413 84.7919 17.6206 84.7483 17.5793C84.7053 17.538 84.6838 17.4879 84.6838 17.4289C84.6838 17.4053 84.6867 17.3846 84.6931 17.3669L85.5818 15.517L83.7486 11.6313C83.7422 11.6135 83.7393 11.5929 83.7393 11.5693C83.7393 11.5103 83.7608 11.4601 83.8038 11.4188C83.8474 11.3775 83.8997 11.3569 83.9613 11.3569H84.3409C84.4647 11.3569 84.5542 11.4277 84.6094 11.5693L86.0352 14.5787L87.4796 11.5693C87.5354 11.4277 87.6249 11.3569 87.7481 11.3569H88.1277C88.1893 11.3569 88.2422 11.3775 88.2852 11.4188C88.3282 11.4601 88.3497 11.5103 88.3497 11.5693C88.3497 11.5929 88.3468 11.6135 88.341 11.6313L85.5539 17.4289Z" fill="#CACED4"/>
<path d="M46.1134 30.4501C48.164 30.4501 49.3358 29.3392 50.0054 28.2009L48.3035 27.3918C47.9129 28.1461 47.0759 28.7221 46.1134 28.7221C44.4254 28.7221 43.1978 27.4467 43.1978 25.7187C43.1978 23.9907 44.4254 22.7152 46.1134 22.7152C47.0759 22.7152 47.9129 23.3049 48.3035 24.0455L50.0054 23.2227C49.3498 22.0844 48.164 20.9872 46.1134 20.9872C43.3234 20.9872 41.1611 22.9072 41.1611 25.7187C41.1611 28.5301 43.3234 30.4501 46.1134 30.4501ZM54.0304 30.4501C55.0766 30.4501 56.1368 30.1347 56.8064 29.5312L56.0252 28.4067C55.5928 28.8181 54.7976 29.0649 54.2257 29.0649C53.0818 29.0649 52.3982 28.3655 52.2866 27.5289H57.2947V27.1449C57.2947 24.9781 55.9276 23.4969 53.9188 23.4969C51.8681 23.4969 50.4313 25.0467 50.4313 26.9667C50.4313 29.0924 51.9797 30.4501 54.0304 30.4501ZM55.5788 26.3495H52.2587C52.3424 25.6912 52.8167 24.8821 53.9188 24.8821C55.0906 24.8821 55.537 25.7187 55.5788 26.3495ZM60.0669 30.2855V25.9107C60.3598 25.4855 61.141 25.1564 61.7269 25.1564C61.9222 25.1564 62.0896 25.1701 62.2152 25.1975V23.4969C61.3782 23.4969 60.5412 23.9769 60.0669 24.5667V23.6615H58.2952V30.2855H60.0669ZM65.3034 30.4501C66.0427 30.4501 66.517 30.2581 66.7821 30.0249L66.4054 28.7084C66.3078 28.8044 66.0567 28.9004 65.7916 28.9004C65.401 28.9004 65.1778 28.5849 65.1778 28.1735V25.1838H66.5449V23.6615H65.1778V21.8512H63.3922V23.6615H62.2762V25.1838H63.3922V28.6398C63.3922 29.8192 64.0618 30.4501 65.3034 30.4501ZM68.3567 22.9484C68.9426 22.9484 69.4169 22.4821 69.4169 21.9061C69.4169 21.3301 68.9426 20.8775 68.3567 20.8775C67.7847 20.8775 67.2965 21.3301 67.2965 21.9061C67.2965 22.4821 67.7847 22.9484 68.3567 22.9484ZM69.2495 30.2855V23.6615H67.4778V30.2855H69.2495ZM72.9032 30.2855V25.1838H74.2703V23.6615H72.9032V23.3049C72.9032 22.7015 73.238 22.3724 73.7402 22.3724C73.9774 22.3724 74.1727 22.4409 74.3122 22.5369L74.6749 21.2752C74.354 21.1107 73.8937 21.0009 73.3915 21.0009C72.0662 21.0009 71.1176 21.8649 71.1176 23.3049V23.6615H70.0016V25.1838H71.1176V30.2855H72.9032ZM76.1675 22.9484C76.7534 22.9484 77.2277 22.4821 77.2277 21.9061C77.2277 21.3301 76.7534 20.8775 76.1675 20.8775C75.5956 20.8775 75.1073 21.3301 75.1073 21.9061C75.1073 22.4821 75.5956 22.9484 76.1675 22.9484ZM77.0603 30.2855V23.6615H75.2887V30.2855H77.0603ZM81.7068 30.4501C82.7531 30.4501 83.8133 30.1347 84.4829 29.5312L83.7017 28.4067C83.2692 28.8181 82.4741 29.0649 81.9021 29.0649C80.7582 29.0649 80.0747 28.3655 79.9631 27.5289H84.9711V27.1449C84.9711 24.9781 83.604 23.4969 81.5952 23.4969C79.5446 23.4969 78.1077 25.0467 78.1077 26.9667C78.1077 29.0924 79.6562 30.4501 81.7068 30.4501ZM83.2553 26.3495H79.9352C80.0189 25.6912 80.4932 24.8821 81.5952 24.8821C82.767 24.8821 83.2134 25.7187 83.2553 26.3495ZM92.389 30.2855V21.1381H90.6034V24.5118C90.0733 23.8398 89.32 23.4969 88.5249 23.4969C86.809 23.4969 85.5396 24.8135 85.5396 26.9804C85.5396 29.1884 86.823 30.4501 88.5249 30.4501C89.334 30.4501 90.0733 30.0935 90.6034 29.4352V30.2855H92.389ZM89.0689 28.9004C88.0645 28.9004 87.367 28.1187 87.367 26.9804C87.367 25.8284 88.0645 25.0467 89.0689 25.0467C89.6688 25.0467 90.3105 25.3621 90.6034 25.8009V28.1461C90.3105 28.5849 89.6688 28.9004 89.0689 28.9004ZM99.1798 30.2855V21.1381H97.1989V30.2855H99.1798ZM107.025 30.2855V25.6089C107.025 24.3198 106.314 23.4969 104.835 23.4969C103.733 23.4969 102.91 24.0181 102.478 24.5255V23.6615H100.706V30.2855H102.478V25.8284C102.771 25.4307 103.315 25.0467 104.012 25.0467C104.766 25.0467 105.254 25.3621 105.254 26.2809V30.2855H107.025ZM110.682 30.2855V25.1838H112.049V23.6615H110.682V23.3049C110.682 22.6878 111.03 22.3724 111.519 22.3724C111.839 22.3724 112.077 22.4684 112.258 22.6467L112.928 21.6181C112.495 21.1655 111.812 21.0009 111.17 21.0009C109.817 21.0009 108.896 21.8924 108.896 23.3049V23.6615H107.78V25.1838H108.896V30.2855H110.682ZM114.562 30.2855V25.9107C114.855 25.4855 115.636 25.1564 116.222 25.1564C116.417 25.1564 116.585 25.1701 116.71 25.1975V23.4969C115.873 23.4969 115.036 23.9769 114.562 24.5667V23.6615H112.79V30.2855H114.562ZM123.355 30.2855V26.0067C123.355 24.1004 121.946 23.4969 120.412 23.4969C119.351 23.4969 118.291 23.8261 117.468 24.5392L118.138 25.7049C118.71 25.1838 119.379 24.9232 120.105 24.9232C120.998 24.9232 121.583 25.3621 121.583 26.0341V26.9255C121.137 26.4044 120.342 26.1164 119.449 26.1164C118.375 26.1164 117.106 26.7061 117.106 28.2558C117.106 29.7369 118.375 30.4501 119.449 30.4501C120.328 30.4501 121.123 30.1347 121.583 29.5998V30.2855H123.355ZM120.161 29.2707C119.463 29.2707 118.891 28.9141 118.891 28.2969C118.891 27.6524 119.463 27.2958 120.161 27.2958C120.733 27.2958 121.291 27.4878 121.583 27.8718V28.6947C121.291 29.0787 120.733 29.2707 120.161 29.2707ZM127.261 30.4501C129.13 30.4501 130.177 29.5312 130.177 28.3244C130.177 25.6501 126.187 26.4729 126.187 25.4855C126.187 25.1152 126.605 24.8272 127.247 24.8272C128.07 24.8272 128.837 25.1701 129.242 25.5952L129.953 24.4021C129.284 23.8809 128.377 23.4969 127.233 23.4969C125.462 23.4969 124.471 24.4707 124.471 25.5815C124.471 28.1872 128.475 27.2958 128.475 28.3929C128.475 28.8044 128.112 29.1061 127.345 29.1061C126.508 29.1061 125.503 28.6535 125.015 28.2009L124.248 29.4215C124.959 30.0661 126.089 30.4501 127.261 30.4501ZM133.463 30.4501C134.202 30.4501 134.676 30.2581 134.941 30.0249L134.565 28.7084C134.467 28.8044 134.216 28.9004 133.951 28.9004C133.56 28.9004 133.337 28.5849 133.337 28.1735V25.1838H134.704V23.6615H133.337V21.8512H131.551V23.6615H130.435V25.1838H131.551V28.6398C131.551 29.8192 132.221 30.4501 133.463 30.4501ZM137.409 30.2855V25.9107C137.702 25.4855 138.483 25.1564 139.069 25.1564C139.264 25.1564 139.431 25.1701 139.557 25.1975V23.4969C138.72 23.4969 137.883 23.9769 137.409 24.5667V23.6615H135.637V30.2855H137.409ZM146.705 30.2855V23.6615H144.933V28.1461C144.626 28.5301 144.082 28.9004 143.398 28.9004C142.645 28.9004 142.157 28.5987 142.157 27.6798V23.6615H140.385V28.3655C140.385 29.6547 141.083 30.4501 142.561 30.4501C143.663 30.4501 144.473 29.9564 144.933 29.4489V30.2855H146.705ZM151.323 30.4501C152.704 30.4501 153.541 29.8604 153.988 29.2432L152.83 28.1872C152.509 28.6261 152.021 28.9004 151.407 28.9004C150.333 28.9004 149.579 28.1187 149.579 26.9667C149.579 25.8147 150.333 25.0467 151.407 25.0467C152.021 25.0467 152.509 25.2935 152.83 25.7598L153.988 24.6901C153.541 24.0867 152.704 23.4969 151.323 23.4969C149.245 23.4969 147.752 24.9369 147.752 26.9667C147.752 29.0101 149.245 30.4501 151.323 30.4501ZM157.127 30.4501C157.866 30.4501 158.341 30.2581 158.606 30.0249L158.229 28.7084C158.131 28.8044 157.88 28.9004 157.615 28.9004C157.225 28.9004 157.001 28.5849 157.001 28.1735V25.1838H158.368V23.6615H157.001V21.8512H155.216V23.6615H154.1V25.1838H155.216V28.6398C155.216 29.8192 155.885 30.4501 157.127 30.4501ZM165.621 30.2855V23.6615H163.849V28.1461C163.542 28.5301 162.998 28.9004 162.315 28.9004C161.561 28.9004 161.073 28.5987 161.073 27.6798V23.6615H159.301V28.3655C159.301 29.6547 159.999 30.4501 161.478 30.4501C162.58 30.4501 163.389 29.9564 163.849 29.4489V30.2855H165.621ZM168.873 30.2855V25.9107C169.166 25.4855 169.947 25.1564 170.533 25.1564C170.728 25.1564 170.896 25.1701 171.021 25.1975V23.4969C170.184 23.4969 169.347 23.9769 168.873 24.5667V23.6615H167.101V30.2855H168.873ZM175.015 30.4501C176.062 30.4501 177.122 30.1347 177.792 29.5312L177.01 28.4067C176.578 28.8181 175.783 29.0649 175.211 29.0649C174.067 29.0649 173.383 28.3655 173.272 27.5289H178.28V27.1449C178.28 24.9781 176.913 23.4969 174.904 23.4969C172.853 23.4969 171.416 25.0467 171.416 26.9667C171.416 29.0924 172.965 30.4501 175.015 30.4501ZM176.564 26.3495H173.244C173.328 25.6912 173.802 24.8821 174.904 24.8821C176.076 24.8821 176.522 25.7187 176.564 26.3495Z" fill="white"/>
<defs>
<linearGradient id="paint0_linear" x1="40.8098" y1="-2.26044" x2="6.8068" y2="-0.690125" gradientUnits="userSpaceOnUse">
<stop stop-color="#05D5FF"/>
<stop offset="1" stop-color="#5533FF"/>
</linearGradient>
</defs>
</svg>
