<svg width="40" height="40" viewBox="0 0 40 40" fill="none" xmlns="http://www.w3.org/2000/svg">
<path fill-rule="evenodd" clip-rule="evenodd" d="M0 20C0 8.96 8.96 0 20 0C31.04 0 40 8.96 40 20C40 31.04 31.04 40 20 40C8.96 40 0 31.04 0 20ZM32.28 25.88C32.4 25.64 32.48 25.36 32.72 24.48C32.96 23.6 33.08 22.08 33.04 20.32C33.04 17.88 32.12 15.92 30.64 14.44C30.88 13.6 31.24 11.76 30.28 9.36C30.28 9.36 30.16 9.32 29.88 9.32C29.2 9.32 27.56 9.56 24.8 11.4C23.32 11.04 21.72 10.84 20.12 10.84C18.4 10.84 16.6 11.08 14.96 11.52C11 8.84 9.28 9.4 9.28 9.4C8.16 12.2 8.88 14.32 9.08 14.84C7.72 16.28 6.92 18.12 6.92 20.36C6.92 22.08 7.12 23.6 7.6 24.92C7.6 25.01 7.6 25.01 7.63375 25.055C7.645 25.07 7.66 25.09 7.68 25.12L7.68003 25.1201C7.80002 25.4001 7.92001 25.68 8.04 25.92L8.12 26.08C9.44 28.52 12.08 30.12 16.72 30.64H23.76C28.72 30.12 31.12 28.52 32.2 26.04L32.28 25.88ZM24.3602 18.32C25.5202 18.32 26.5202 18.52 27.2402 19.28C28.1602 20.28 28.6802 21.44 28.7602 22.72C28.7602 28.6 24.9602 28.76 20.2802 28.76C15.6002 28.76 11.8002 27.96 11.8002 22.72C11.8002 21.44 12.3202 20.28 13.2402 19.32C14.3508 18.151 16.0165 18.2845 17.9722 18.4413C18.6932 18.4991 19.4537 18.56 20.2402 18.56C21.0129 18.56 21.7638 18.4946 22.4815 18.4321C23.1385 18.3748 23.7676 18.32 24.3602 18.32ZM13.8802 23C13.8802 24.6 14.6802 25.92 15.6402 25.92C16.6002 25.92 17.4002 24.6 17.4002 23C17.4002 21.4 16.6002 20.08 15.6402 20.08C14.6802 20.08 13.8802 21.36 13.8802 23ZM23.3202 23C23.3202 24.6 24.1202 25.92 25.0802 25.92C26.0802 25.92 26.8402 24.6 26.8402 23C26.8402 21.4 26.0402 20.08 25.0802 20.08C24.1202 20.08 23.3202 21.36 23.3202 23Z" fill="white"/>
</svg>
