<svg width="32" height="32" viewBox="0 0 32 32" fill="none" xmlns="http://www.w3.org/2000/svg">
<path fill-rule="evenodd" clip-rule="evenodd" d="M32 16C32 7.17 24.83 0 16 0C7.17 0 0 7.17 0 16C0 24.83 7.17 32 16 32C24.83 32 32 24.83 32 16Z" fill="white"/>
<path fill-rule="evenodd" clip-rule="evenodd" d="M16 0C24.83 0 32 7.17 32 16C32 24.83 24.83 32 16 32C7.17 32 0 24.83 0 16C0 7.17 7.17 0 16 0ZM26.15 17.95C25.72 18.55 25 18.88 24.26 18.81C23.06 22.35 19.73 24.73 16 24.73C12.27 24.73 8.94 22.35 7.74 18.81C7 18.89 6.28 18.56 5.85 17.95C5.42 17.34 5.35 16.56 5.66 15.88C5.97 15.21 6.63 14.76 7.37 14.7C8.01 10.43 11.68 7.26 16 7.26C20.32 7.26 23.99 10.42 24.63 14.7C25.37 14.76 26.02 15.21 26.34 15.88C26.65 16.56 26.58 17.35 26.15 17.95Z" fill="black"/>
<path fill-rule="evenodd" clip-rule="evenodd" d="M12.2301 19.75C12.5101 21.61 14.1101 22.98 16.0001 22.98C17.8901 22.98 19.4801 21.61 19.7701 19.75C21.0901 19.16 21.9601 17.87 22.0101 16.42C22.0601 14.97 21.2801 13.63 20.0101 12.95C18.7301 12.27 17.1801 12.38 16.0101 13.23C14.8401 12.38 13.2901 12.27 12.0101 12.95C10.7301 13.63 9.96011 14.98 10.0101 16.42C10.0601 17.86 10.9101 19.16 12.2301 19.75ZM14.4401 16.46C14.5501 17.02 14.3201 17.6 13.8401 17.91C13.3601 18.23 12.7401 18.23 12.2701 17.91C11.7901 17.59 11.5601 17.02 11.6701 16.46H14.4401ZM18.1601 17.91C17.6801 17.59 17.4501 17.02 17.5601 16.46H20.3301C20.4401 17.02 20.2101 17.6 19.7301 17.91C19.2601 18.23 18.6401 18.23 18.1601 17.91Z" fill="black"/>
</svg>
