<svg width="32" height="32" viewBox="0 0 32 32" fill="none" xmlns="http://www.w3.org/2000/svg">
<path fill-rule="evenodd" clip-rule="evenodd" d="M32 16C32 7.17152 24.8285 0 16 0C7.17152 0 0 7.17152 0 16C0 24.8285 7.17152 32 16 32C24.8285 32 32 24.8285 32 16Z" fill="white"/>
<path fill-rule="evenodd" clip-rule="evenodd" d="M16 0C24.8285 0 32 7.17152 32 16C32 24.8285 24.8285 32 16 32C7.17152 32 0 24.8285 0 16C0 7.17152 7.17152 0 16 0ZM26.1536 17.9533C25.7242 18.5581 25.0026 18.8854 24.2643 18.8099C23.0611 22.3491 19.7379 24.729 16 24.729C12.2621 24.729 8.93889 22.3491 7.73569 18.8099C6.99745 18.8854 6.27585 18.5581 5.84641 17.9533C5.41697 17.3482 5.34593 16.5587 5.66081 15.887C5.97569 15.215 6.62753 14.7645 7.36705 14.7072C8.00705 10.4333 11.6784 7.27104 16 7.27104C20.3216 7.27104 23.993 10.4333 24.633 14.7072C25.3725 14.7645 26.0243 15.215 26.3392 15.887C26.6541 16.5587 26.583 17.3482 26.1536 17.9533Z" fill="black"/>
<path fill-rule="evenodd" clip-rule="evenodd" d="M12.2342 19.7472C12.5181 21.6074 14.1181 22.9814 16 22.9814C17.8819 22.9814 19.4819 21.6074 19.7658 19.7472C21.0864 19.1571 21.9552 17.8662 22.0051 16.4208C22.055 14.9754 21.2768 13.6278 20.0003 12.9485C18.7235 12.2688 17.1712 12.376 16 13.2246C14.8288 12.376 13.2765 12.2688 11.9997 12.9485C10.7232 13.6278 9.94496 14.9754 9.99488 16.4208C10.0448 17.8662 10.9136 19.1571 12.2342 19.7472ZM14.44 16.4595C14.5526 17.0208 14.3155 17.5949 13.8397 17.913C13.3635 18.2314 12.7427 18.2314 12.2669 17.913C11.791 17.5949 11.5539 17.0208 11.6662 16.4595H14.44ZM18.1603 17.913C17.6845 17.5949 17.4474 17.0208 17.56 16.4595H20.3338C20.4461 17.0208 20.209 17.5949 19.7331 17.913C19.2573 18.2314 18.6365 18.2314 18.1603 17.913Z" fill="black"/>
</svg>
