<svg width="65" height="20" viewBox="0 0 65 20" fill="none" xmlns="http://www.w3.org/2000/svg">
<path fill-rule="evenodd" clip-rule="evenodd" d="M52.8262 1.21569H56.4538V2.41393C57.1538 1.59452 58.4426 0.92334 59.9621 0.92334C62.9144 0.92334 64.5862 2.85452 64.5862 5.74922C64.5862 8.59452 64.5862 11.4439 64.5862 14.2892H60.9585C60.9585 11.6992 60.9585 9.1051 60.9585 6.51099C60.9585 5.13569 60.2544 4.19687 58.8215 4.19687C57.7097 4.19687 56.7462 4.87216 56.4538 6.01275V14.2892H52.8262V1.21569Z" fill="white"/>
<path fill-rule="evenodd" clip-rule="evenodd" d="M50.4831 4.78569C49.989 4.49334 49.3425 4.3451 48.6713 4.3451C47.4402 4.3451 46.4478 4.99158 46.1843 6.18981V14.2933H42.5566V1.21569H46.1843V2.50452C46.7402 1.56569 47.8231 0.92334 49.1078 0.92334C49.7255 0.92334 50.2772 1.03863 50.4831 1.15805V4.78569Z" fill="white"/>
<path fill-rule="evenodd" clip-rule="evenodd" d="M36.1218 13.5892V14.2892H39.6054V5.9551C39.6054 2.82157 37.5877 0.92334 34.1042 0.92334C31.1189 0.92334 28.986 2.7351 28.6071 5.10687H32.0577C32.3501 4.3451 32.9636 3.87569 33.9889 3.87569C35.4507 3.87569 36.1218 4.78157 36.1218 5.89334V6.86099C35.5948 6.47805 34.2813 6.09922 33.1407 6.09922C30.3036 6.09922 28.0801 7.79569 28.0801 10.2828C28.0801 13.0045 30.3036 14.5239 32.9348 14.5239C34.3677 14.5239 35.6854 14.0257 36.1218 13.5892ZM33.7542 8.64393C34.8042 8.64393 35.8007 9.08452 36.1218 9.78452V10.7233C35.8007 11.4233 34.8042 11.8639 33.7542 11.8639C32.6136 11.8639 31.4442 11.3945 31.4442 10.2539C31.4442 9.14216 32.6136 8.64393 33.7542 8.64393Z" fill="white"/>
<path fill-rule="evenodd" clip-rule="evenodd" d="M20.648 14.5857C23.9257 14.5857 25.9721 12.7986 26.4374 10.0192H23.0774C22.7851 11.131 21.8792 11.658 20.648 11.658C19.0421 11.658 17.9304 10.4886 17.811 8.52863H26.528V7.41687C26.528 3.58746 24.4239 0.92334 20.5904 0.92334C16.9339 0.92334 14.3027 3.81805 14.3027 7.76687C14.3027 11.8063 16.8433 14.5857 20.648 14.5857ZM22.958 6.33393H17.8974C18.2186 4.72805 19.2151 3.87981 20.6192 3.87981C22.1098 3.87981 22.9292 4.95863 22.958 6.33393Z" fill="white"/>
<path fill-rule="evenodd" clip-rule="evenodd" d="M3.87634 19.1191C4.94281 19.0368 6.96869 18.5468 7.91163 16.0803L13.5693 1.21558H9.91281L6.92751 9.90381L3.91751 1.21558H0.0839844L5.14045 14.4209C4.96751 14.915 4.74928 15.2526 4.52693 15.4832C4.42398 15.5862 4.3581 15.6397 4.30046 15.685C4.20575 15.755 4.09046 15.8003 3.97516 15.8415C3.59634 15.9691 3.17222 15.9815 3.06104 15.9815C2.3981 15.9815 1.73928 15.9815 1.07634 15.9815V19.1191H3.18457H3.76104H3.87634Z" fill="white"/>
</svg>
