<svg width="40" height="40" viewBox="0 0 40 40" fill="none" xmlns="http://www.w3.org/2000/svg">
<path d="M20 0C8.96 0 0 8.96 0 20C0 31.04 8.96 40 20 40C31.04 40 40 31.04 40 20C40 8.96 31.04 0 20 0ZM30.68 14.56C30.8 18.2 29.76 21.12 28.4 23.4C27.08 25.64 25.28 27.44 23.12 28.72C20.96 30.04 18.08 31 14.68 30.88C11.52 30.8 9 29.88 6.96 28.64C6.84 28.56 6.68 28.48 6.6 28.36C10.12 28.76 12.8 27.6 14.72 26.12C13.32 26.08 12.24 25.6 11.44 24.92C10.64 24.28 9.96 23.4 9.6 22.28C10.32 22.44 11.36 22.4 12 22.2C10.68 21.92 9.72 21.2 8.96 20.32C8.2 19.48 7.68 18.32 7.68 16.72C7.72 16.64 7.84 16.76 7.92 16.8C8.52 17.08 9.28 17.32 10.12 17.36C8.76 16.4 7.4 14.56 7.8 11.96C7.92 11.2 8.16 10.56 8.48 10C8.84 10.36 9.16 10.76 9.52 11.12C12 13.6 15.2 15.4 19.84 15.76C19.2 12.92 20.68 10.8 22.48 9.76C23.48 9.2 24.88 8.92 26.24 9.2C27.48 9.44 28.44 10.08 29.16 10.8C30.52 10.56 31.6 10.04 32.64 9.48C32.16 10.8 31.4 11.84 30.24 12.48C31.36 12.4 32.44 12 33.36 11.64C32.68 12.8 31.72 13.72 30.68 14.56Z" fill="white"/>
</svg>
